<svg width="30" height="30" viewBox="0 0 30 30" fill="none" xmlns="http://www.w3.org/2000/svg">
<g clip-path="url(#clip0)">
<g opacity="0.3">
<path d="M22.7592 15.8232L8.8833 29.6607C8.42867 30.1139 7.69262 30.1131 7.23875 29.6584C6.78524 29.2038 6.78641 28.4673 7.2411 28.0139L20.291 14.9999L7.24063 1.9861C6.786 1.53258 6.78483 0.796587 7.23829 0.341902C7.4658 0.113974 7.76387 7.62939e-06 8.06194 7.62939e-06C8.35924 7.62939e-06 8.65613 0.113211 8.88324 0.339558L22.7592 14.1767C22.9781 14.3946 23.101 14.691 23.101 14.9999C23.101 15.3089 22.9778 15.605 22.7592 15.8232Z" fill="black"/>
</g>
</g>
<defs>
<clipPath id="clip0">
<rect width="30" height="30" transform="matrix(1 0 0 -1 0 30)" fill="white"/>
</clipPath>
</defs>
</svg>
