<svg width="40" height="40" viewBox="0 0 40 40" fill="none" xmlns="http://www.w3.org/2000/svg">
<path d="M20 0C8.97219 0 0 8.97219 0 20C0 31.0278 8.97219 40 20 40C31.0278 40 40 31.0278 40 20C40 8.97219 31.0278 0 20 0ZM20 38.3334C9.89094 38.3334 1.66664 30.1091 1.66664 20C1.66664 9.89094 9.89094 1.66664 20 1.66664C30.1091 1.66664 38.3334 9.89094 38.3334 20C38.3334 30.1091 30.1091 38.3334 20 38.3334Z" fill="#989898"/>
<path d="M28.089 11.9109C27.7635 11.5854 27.2361 11.5854 26.9107 11.9109L19.9998 18.8218L13.089 11.911C12.7635 11.5854 12.2361 11.5854 11.9107 11.911C11.5851 12.2365 11.5851 12.7639 11.9107 13.0893L18.8214 20.0001L11.9107 26.9109C11.5851 27.2364 11.5851 27.7638 11.9107 28.0893C12.0734 28.252 12.2867 28.3334 12.4999 28.3334C12.7131 28.3334 12.9263 28.252 13.0891 28.0893L19.9998 21.1785L26.9106 28.0893C27.0733 28.252 27.2866 28.3334 27.4998 28.3334C27.713 28.3334 27.9262 28.252 28.089 28.0893C28.4146 27.7637 28.4146 27.2364 28.089 26.9109L21.1782 20.0001L28.0889 13.0893C28.4145 12.7638 28.4145 12.2365 28.089 11.9109Z" fill="#989898"/>
</svg>
