<svg width="51" height="51" viewBox="0 0 51 51" fill="none" xmlns="http://www.w3.org/2000/svg">
<g clip-path="url(#clip0)">
<path d="M51 28.8227C51 25.362 48.4258 22.4926 45.092 22.0249V20.3337C45.092 9.53065 36.3031 0.741699 25.5 0.741699C14.6969 0.741699 5.90797 9.53065 5.90797 20.3337V22.0249C4.84263 22.1744 3.8549 22.5681 3.00405 23.1492V12.7078H0V28.8227C0 32.2833 2.57417 35.1527 5.90797 35.6204V36.8904C5.90797 42.5223 10.4899 47.1041 16.1217 47.1041H20.2425C20.869 48.9366 22.6068 50.2584 24.6488 50.2584H26.0006C28.568 50.2584 30.6569 48.1696 30.6569 45.6021C30.6569 43.0346 28.568 40.9458 26.0006 40.9458H24.6488C22.6068 40.9458 20.8689 42.2676 20.2425 44.1001H16.1217C12.5325 44.1001 9.54828 41.4634 9.00214 38.0255C9.57982 38.2613 10.211 38.3924 10.8725 38.3924C13.6099 38.3924 15.837 36.1653 15.837 33.4279V24.0308C15.837 21.2934 13.6099 19.0663 10.8725 19.0663C10.1854 19.0663 9.53066 19.2068 8.93505 19.4601C9.39077 10.718 16.6464 3.74565 25.5 3.74565C34.3536 3.74565 41.6092 10.718 42.0649 19.4601C41.4693 19.2067 40.8146 19.0663 40.1275 19.0663C37.3901 19.0663 35.163 21.2934 35.163 24.0308V33.4279C35.163 36.1653 37.3901 38.3924 40.1275 38.3924C42.0565 38.3924 43.7308 37.2858 44.5522 35.6748C48.1439 35.4577 51 32.4681 51 28.8227ZM24.6489 43.95H26.0007C26.9117 43.95 27.6529 44.6912 27.6529 45.6022C27.6529 46.5132 26.9117 47.2544 26.0007 47.2544H24.6489C23.7378 47.2544 22.9966 46.5132 22.9966 45.6022C22.9966 44.6912 23.7378 43.95 24.6489 43.95ZM3.00405 28.8227C3.00405 27.0239 4.24042 25.5082 5.90797 25.0809V32.5645C4.24042 32.1372 3.00405 30.6216 3.00405 28.8227ZM10.8725 22.0705C11.9534 22.0705 12.8329 22.95 12.8329 24.0309V33.428C12.8329 34.5089 11.9534 35.3884 10.8725 35.3884C9.79151 35.3884 8.91202 34.5089 8.91202 33.428V24.0309C8.91202 22.9499 9.79151 22.0705 10.8725 22.0705ZM40.1275 35.3884C39.0466 35.3884 38.1671 34.5089 38.1671 33.428V24.0309C38.1671 22.95 39.0466 22.0705 40.1275 22.0705C41.2085 22.0705 42.088 22.95 42.088 24.0309V33.428C42.088 34.5089 41.2085 35.3884 40.1275 35.3884ZM45.092 32.5645V25.0809C46.7596 25.5082 47.9959 27.0239 47.9959 28.8228C47.9959 30.6216 46.7595 32.1372 45.092 32.5645Z" fill="#689038"/>
</g>
<defs>
<clipPath id="clip0">
<rect width="51" height="51" fill="white"/>
</clipPath>
</defs>
</svg>
