<svg width="51" height="51" viewBox="0 0 51 51" fill="none" xmlns="http://www.w3.org/2000/svg">
<g clip-path="url(#clip0)">
<path d="M38.5179 30.3214C34.9731 30.3214 32.0894 33.2051 32.0894 36.7499C32.0894 40.2947 34.9731 43.1785 38.5179 43.1785C42.0633 43.1785 44.9465 40.2947 44.9465 36.7499C44.9465 33.2051 42.0627 30.3214 38.5179 30.3214ZM38.5179 39.9642C36.7453 39.9642 35.3037 38.5226 35.3037 36.7499C35.3037 34.9773 36.7453 33.5356 38.5179 33.5356C40.2906 33.5356 41.7322 34.9773 41.7322 36.7499C41.7322 38.5227 40.2906 39.9642 38.5179 39.9642Z" fill="#689038"/>
<path d="M16.5536 30.3214C13.0088 30.3214 10.125 33.2051 10.125 36.7499C10.125 40.2947 13.0088 43.1785 16.5536 43.1785C20.0984 43.1785 22.9822 40.2947 22.9822 36.7499C22.9822 33.2051 20.0984 30.3214 16.5536 30.3214ZM16.5536 39.9642C14.7809 39.9642 13.3393 38.5226 13.3393 36.7499C13.3393 34.9773 14.7809 33.5356 16.5536 33.5356C18.3257 33.5356 19.7679 34.9773 19.7679 36.7499C19.7679 38.5227 18.3262 39.9642 16.5536 39.9642Z" fill="#689038"/>
<path d="M42.8469 11.9207C42.5736 11.3781 42.0181 11.0357 41.4106 11.0357H32.9463V14.25H40.4195L44.7957 22.9543L47.6683 21.5099L42.8469 11.9207Z" fill="#689038"/>
<path d="M33.6964 35.1965H21.5356V38.4108H33.6964V35.1965Z" fill="#689038"/>
<path d="M11.7322 35.1965H6.16081C5.27309 35.1965 4.55371 35.916 4.55371 36.8036C4.55371 37.6914 5.27319 38.4107 6.16081 38.4107H11.7323C12.62 38.4107 13.3394 37.6913 13.3394 36.8036C13.3394 35.9159 12.6199 35.1965 11.7322 35.1965Z" fill="#689038"/>
<path d="M50.6626 25.3714L47.5014 21.3C47.1977 20.9079 46.7289 20.6786 46.2323 20.6786H34.5537V9.42857C34.5537 8.54085 33.8342 7.82147 32.9466 7.82147H6.16081C5.27309 7.82147 4.55371 8.54095 4.55371 9.42857C4.55371 10.3162 5.27319 11.0357 6.16081 11.0357H31.3394V22.2856C31.3394 23.1734 32.0589 23.8927 32.9465 23.8927H45.4453L47.7858 26.9077V35.1963H43.3393C42.4516 35.1963 41.7322 35.9158 41.7322 36.8034C41.7322 37.6911 42.4517 38.4105 43.3393 38.4105H49.3929C50.2806 38.4105 51 37.691 51.0001 36.8034V26.3572C51.0001 26.0004 50.8811 25.6532 50.6626 25.3714Z" fill="#689038"/>
<path d="M11.625 27.0536H4.2321C3.34438 27.0536 2.625 27.7731 2.625 28.6608C2.625 29.5485 3.34448 30.2679 4.2321 30.2679H11.6249C12.5126 30.2679 13.232 29.5484 13.232 28.6608C13.2321 27.7731 12.5126 27.0536 11.625 27.0536Z" fill="#689038"/>
<path d="M15.3214 20.7321H1.6071C0.719479 20.7321 0 21.4515 0 22.3393C0 23.227 0.719479 23.9464 1.6071 23.9464H15.3214C16.2091 23.9464 16.9285 23.2269 16.9285 22.3393C16.9285 21.4516 16.2091 20.7321 15.3214 20.7321Z" fill="#689038"/>
<path d="M17.9464 14.4108H4.2321C3.34438 14.4108 2.625 15.1303 2.625 16.0179C2.625 16.9056 3.34448 17.625 4.2321 17.625H17.9464C18.8341 17.625 19.5535 16.9055 19.5535 16.0179C19.5536 15.1303 18.8341 14.4108 17.9464 14.4108Z" fill="#689038"/>
</g>
<defs>
<clipPath id="clip0">
<rect width="51" height="51" fill="white"/>
</clipPath>
</defs>
</svg>
