<svg width="51" height="49" viewBox="0 0 51 49" fill="none" xmlns="http://www.w3.org/2000/svg">
<path d="M50.7827 2.97756C50.7057 2.3324 50.1574 1.82278 49.4624 1.75121C37.6377 0.531368 27.5578 4.92498 19.3355 12.7866C16.9825 15.0365 14.9415 17.418 13.1994 19.7164C10.251 19.605 6.98195 20.844 4.66432 22.9967L0.437631 26.9227C-0.0406052 27.3669 -0.137887 28.0543 0.200264 28.5983C0.538414 29.1422 1.22756 29.4072 1.88129 29.2449C2.86189 29.0002 4.45536 28.7157 5.98618 28.6496C6.54574 28.6254 7.01075 28.633 7.39715 28.6604C6.46441 30.3267 5.74959 31.7225 5.51261 32.072C5.14139 32.6207 5.22738 33.3345 5.72079 33.7928L8.16645 36.0644C4.60712 40.5734 4.54836 42.8826 4.56081 43.2097C4.58688 43.9025 5.16862 44.5517 6.1321 44.5517C6.96639 44.5517 9.35912 44.2228 13.715 41.2182L16.2875 43.6076C16.7844 44.0692 17.5607 44.1465 18.1522 43.7937C18.5546 43.5534 19.969 42.9173 21.6652 42.0939C21.6932 43.2682 21.5216 44.9926 21.1492 47.33C20.9376 48.6558 22.6727 49.4538 23.684 48.5148L27.9107 44.5889C30.0902 42.5645 31.3541 39.5577 31.2607 36.7371C33.8674 35.0452 36.5793 33.0494 39.1113 30.743C47.4946 23.107 52.0793 13.8152 50.7827 2.97756ZM47.9242 4.40596C48.1628 7.39864 47.9083 10.2995 47.167 13.1068C45.326 12.5683 43.5263 11.5103 41.9009 10.001C40.2697 8.48548 39.1284 6.80697 38.551 5.09088C41.5721 4.41246 44.6972 4.18259 47.9242 4.40596ZM5.79123 25.8759L6.77727 24.9597C7.96994 23.8523 9.521 23.0546 11.0635 22.696C10.2576 23.8841 9.53929 25.0186 8.90579 26.0657C7.92714 25.8651 6.83914 25.8279 5.79123 25.8759ZM8.619 32.5592C8.94237 31.9665 9.33344 31.2234 10.0514 29.9634L12.0184 31.7908C11.2865 32.5202 10.6257 33.2131 10.0304 33.8698L8.619 32.5592ZM15.9264 32.0283C17.0152 31.0174 18.0592 30.8327 19.3562 30.8066C19.3277 31.9806 19.125 32.9832 18.0397 33.9913C13.4006 38.3003 10.2206 40.2246 8.31899 41.0833C9.25717 39.283 11.3343 36.2936 15.9264 32.0283ZM17.607 40.9077L16.0661 39.476C16.7696 38.9209 17.5133 38.3053 18.2977 37.623L20.3916 39.5678C19.0149 40.2506 18.4405 40.5076 17.607 40.9077ZM25.797 42.6259L24.6008 43.7374C24.6977 42.391 24.6642 41.4101 24.5273 40.6532C25.6261 40.0785 26.8196 39.4269 28.0702 38.6979C27.7138 40.1653 26.9126 41.5901 25.797 42.6259ZM23.112 38.1691L20.4329 35.6802C22.4155 33.654 22.3415 31.7016 22.3415 29.4205C22.3415 28.6539 21.6726 28.0326 20.8473 28.0326C18.553 28.0326 16.3451 27.9184 14.108 29.8058L11.5495 27.4294C18.5359 16.0503 26.6114 8.84619 35.6847 5.87953C36.403 8.03838 37.8011 10.1184 39.788 11.9639C41.7655 13.8011 43.9944 15.0965 46.3086 15.7662C43.096 24.1476 35.3418 31.6437 23.112 38.1691Z" fill="#689038"/>
<path d="M37.8059 14.0504C34.8801 11.2785 30.1195 11.2785 27.1941 14.0504C24.2686 16.8226 24.2686 21.3334 27.1941 24.1053C30.1195 26.8772 34.8801 26.8775 37.8059 24.1053C40.7314 21.3334 40.7314 16.8226 37.8059 14.0504ZM35.6836 22.0943C33.9281 23.7576 31.0715 23.7576 29.3164 22.0943C27.561 20.431 27.561 17.7246 29.3164 16.0613C31.0715 14.3984 33.9277 14.3981 35.6836 16.0613C37.439 17.7246 37.439 20.431 35.6836 22.0943Z" fill="#689038"/>
</svg>
