<?xml version="1.0" encoding="utf-8"?>
<!-- Generator: Adobe Illustrator 22.1.0, SVG Export Plug-In . SVG Version: 6.00 Build 0)  -->
<svg version="1.1" id="Слой_1" xmlns="http://www.w3.org/2000/svg" xmlns:xlink="http://www.w3.org/1999/xlink" x="0px" y="0px"
	 viewBox="0 0 501 485" style="enable-background:new 0 0 501 485;" xml:space="preserve">
<path d="M377.1,421.3c0,12.4,0,24.5,0,36.7c0,4.1-0.1,8.1-4.5,10.2c-4.4,2.2-7.6-0.2-10.9-2.7c-8.1-6.1-16.2-12.2-24.6-18.5
	c-8.5,6.3-16.9,12.6-25.2,18.9c-3,2.3-6.1,4.2-10,2.3c-4.1-2-4.9-5.5-4.8-9.6c0.1-12.3,0-24.6,0-37.4c-1.9-0.1-3.5-0.2-5.1-0.2
	c-80.7,0-161.3,0-242,0C26.5,421,9,403.5,9,380c0-4.5,0-9,0-13.5c0.1-6.5,2.9-9.4,9.5-9.4c16.2,0,32.3,0,48.5,0c1.8,0,3.6,0,6,0
	c0-2.3,0-4.3,0-6.2c0-101,0-202,0-303C73,21.8,89.8,5,115.8,5c110,0,220,0,330,0C472.4,5,489,21.6,489,48.3c0,3.8,0.1,7.7,0,11.5
	c-0.1,6.1-3.1,9.1-9.3,9.2c-17.2,0-34.3,0-51.5,0c-0.8,0-1.6,0.1-3.2,0.2c0,2.1,0,4.2,0,6.3c0,100.7-0.3,201.3,0.2,302
	c0.1,26.2-19.8,45.2-43.3,43.6C380.5,420.9,379,421.2,377.1,421.3z M298.3,356.7c-1.5-4.5-2.7-8.4-3.9-12.3
	c-1.3-4.2-2.5-8.5-3.9-12.7c-0.7-2.1-1.2-4.4-2.6-6c-8.8-9.9-8.8-23.7,0-33.6c1.4-1.5,2.4-3.9,2.5-6c0.9-13.6,10.5-23.2,24-24.1
	c2.1-0.1,4.4-1.2,6-2.5c9.8-8.6,23.5-8.7,33.3-0.2c1.8,1.5,4.5,2.6,6.9,2.8c13,1.2,22.5,10.9,23.4,23.8c0.2,2.2,1.2,4.7,2.7,6.4
	c8.3,9.6,8.2,22.6,0.7,32.6c-5.7,7.6-5.3,17.9-10.1,26.1c-0.3,0.5,0,1.3,0,2c0,14.8,0,29.7,0,44.5c0,6.7,0.6,7.3,7.3,7.5
	c14,0.4,24.6-10.5,24.6-25.6c0-105.2,0-210.3,0-315.5c0-14.5-2.2-29.5,8.2-42.9c-2.5,0-3.8,0-5.1,0c-99,0-198,0-297,0
	C98.8,21,89,30.8,89,47.2c0,101.5,0,203,0,304.5c0,1.7,0,3.5,0,5.1C158.8,356.7,227.7,356.7,298.3,356.7z M25.2,373.2
	c-2.6,21.4,10.6,32.2,29.3,32c79-0.6,157.9-0.3,236.9-0.3c1.8,0,3.5,0,5.2,0c0-11,0-21.4,0-31.8C206,373.2,115.8,373.2,25.2,373.2z
	 M323.2,337.5c1.9,1.9,3.9,4.3,6.3,6.2c2.4,2,5.1,4.8,7.8,4.9c2.4,0.1,5.7-2.5,7.3-4.8c3.8-5.5,5.5-6.2,11.9-4.9
	c2.7,0.5,6.7-0.1,8.5-1.8c1.8-1.7,2.5-5.7,2-8.4c-1.3-6.9-0.8-8.2,5.1-12.3c2.3-1.6,4.6-4.9,4.5-7.5c0-2.5-2.4-5.8-4.7-7.4
	c-5.5-3.8-6.2-5.5-5-11.9c0.5-2.7,0-6.7-1.8-8.5c-1.7-1.8-5.7-2.6-8.4-2.1c-7,1.3-8.6,1-12.1-5.2c-3.6-6.3-11.2-6.5-14.8-0.3
	c-3.9,6.6-5.3,7.1-12.4,5.2c-6.7-1.8-12,3.4-10.5,10.1c1.8,8,1.6,8.5-5.3,12.8c-5.7,3.5-5.8,10.7-0.2,14.4c7.3,4.7,7.3,4.7,5.5,13.2
	c-1.4,6.5,3.8,11.6,10.3,10C318.7,338.9,320.2,338.4,323.2,337.5z M313.3,444.9c5.6-4.2,10.4-7.8,15.2-11.3
	c8.3-6.2,9.2-6.2,17.4-0.1c4.8,3.6,9.7,7.2,15.1,11.3c0-30.2,0-59.3,0-89.9c-2.7,1.3-5.1,1.8-6.7,3.2c-10.5,9.3-23.8,9.2-34.3-0.1
	c-1.5-1.4-3.9-1.8-6.6-3C313.3,385.6,313.3,414.7,313.3,444.9z M472.7,52.8c1.4-12.2-1-22.5-12.1-28.7c-8.8-4.9-17.7-4.3-25.8,1.6
	c-9.3,6.7-10.9,16.4-9.5,27.1C441.2,52.8,456.8,52.8,472.7,52.8z"/>
<path d="M368.8,157.3c0,5.3,0,10.3,0,15.4c-61.2,0-122.1,0-183.4,0c0-5,0-10,0-15.4C246.3,157.3,307.4,157.3,368.8,157.3z"/>
<path d="M169.2,124.6c0-5.2,0-10.2,0-15.4c53.3,0,106.3,0,159.6,0c0,5.2,0,10.1,0,15.4C275.7,124.6,222.7,124.6,169.2,124.6z"/>
<path d="M288.8,237.3c0,5.3,0,10.2,0,15.4c-53.1,0-106,0-159.4,0c0-4.9,0-10,0-15.4C182.3,237.3,235.3,237.3,288.8,237.3z"/>
<path d="M368.8,197.3c0,5.3,0,10.2,0,15.4c-45.1,0-90.1,0-135.4,0c0-4.9,0-10,0-15.4C278.3,197.3,323.3,197.3,368.8,197.3z"/>
<path d="M264.8,277.3c0,5.3,0,10.2,0,15.4c-45.1,0-90.1,0-135.4,0c0-4.9,0-10,0-15.4C174.3,277.3,219.3,277.3,264.8,277.3z"/>
<path d="M216.8,197.4c0,5.2,0,10.2,0,15.4c-29.2,0-58.3,0-87.6,0c0-5.1,0-10.1,0-15.4C158.3,197.4,187.3,197.4,216.8,197.4z"/>
<path d="M193.2,84.7c0-5.3,0-10.2,0-15.4c21.2,0,42.1,0,63.4,0c0,5,0,10,0,15.4C235.7,84.7,214.7,84.7,193.2,84.7z"/>
<path d="M168.8,157.3c0,5.3,0,10.2,0,15.4c-13.1,0-26.1,0-39.4,0c0-4.9,0-10,0-15.4C142.3,157.3,155.3,157.3,168.8,157.3z"/>
<path d="M304.6,84.8c-10.5,0-20.8,0-31.3,0c0-5.2,0-10.3,0-15.6c10.5,0,20.7,0,31.3,0C304.6,74.3,304.6,79.3,304.6,84.8z"/>
</svg>
