<?xml version="1.0" encoding="utf-8"?>
<!-- Generator: Adobe Illustrator 22.1.0, SVG Export Plug-In . SVG Version: 6.00 Build 0)  -->
<svg version="1.1" id="Слой_1" xmlns="http://www.w3.org/2000/svg" xmlns:xlink="http://www.w3.org/1999/xlink" x="0px" y="0px"
	 viewBox="0 0 568 521" style="enable-background:new 0 0 568 521;" xml:space="preserve">
<path d="M456.7,196.8c-5.3,0-10.2,0-15.5,0c-0.1-2.5-0.2-4.8-0.3-7.4c-122.4,0-244.8,0-367.8,0c0,1.7,0,3.5,0,5.3
	c0,29.7,0,59.3,0,89c0,15.2,10.1,25.3,25.4,25.4c7.3,0,14.6,0,22.3,0c0,5.3,0,10.4,0,15.3c-10.3,0-20.8,1.2-30.8-0.3
	c-19.3-2.8-32.8-19.5-32.8-38.9c-0.1-64-0.1-128,0-192C57.1,70.5,74.6,53,97.4,53c99.5-0.1,199-0.1,298.5,0c9.8,0,19.8-0.5,29.4,1.1
	c18,2.9,31.5,19.2,31.6,37.4c0.3,34.5,0.1,69,0.1,103.5C457,195.5,456.8,195.9,456.7,196.8z M440.8,125.3c-122.8,0-245.1,0-367.4,0
	c0,16.1,0,31.8,0,47.4c122.6,0,244.9,0,367.4,0C440.8,156.9,440.8,141.3,440.8,125.3z M73.1,108.7c122.9,0,245.2,0,367.9,0
	c0-4.6,0-8.9,0-13.2c-0.1-17-9.6-26.5-26.7-26.5c-66.6,0-133.3,0-199.9,0c-38.8,0-77.6,0-116.4,0C84.6,69,74,78.3,73.1,90.8
	C72.7,96.6,73.1,102.5,73.1,108.7z"/>
<path d="M336.7,485c-52.5,0-105,0-157.4,0c-25.3,0-42.2-17-42.2-42.4c0-63.1,0-126.3,0-189.4c0-18.3,11.6-33.7,29-38.6
	c3.8-1.1,7.9-1.6,11.8-1.6c106.3-0.1,212.6-0.1,318.9,0c22.4,0,40.1,17.5,40.2,39.8c0.1,64.1,0.1,128.3,0,192.4
	c0,22.2-17.9,39.6-40.4,39.7C443.3,485,390,485,336.7,485z M336.5,469c53,0,106,0,159,0c15.3,0,25.5-10.1,25.5-25.3
	c0-62.7,0-125.3,0-188c0-17.4-9.5-26.8-27-26.8c-104.5,0-209,0-313.5,0c-18.3,0-27.5,9.3-27.5,27.8c0,61.7,0,123.3,0,185
	c0,17.7,9.4,27.3,27,27.3C232.2,469,284.3,469,336.5,469z"/>
<path d="M376.9,408.3c0.2-34.2,33.4-53.3,59.8-37.9c3.1,1.8,5,2.1,8.3,0.2c16.5-10,37.7-6.3,50.3,8.4c12.8,14.9,13,36.4,0.5,51.4
	c-12.6,15.2-33.7,19.1-50.5,9.2c-3.1-1.9-5.1-2-8.3-0.1c-13.3,7.7-27.1,7.8-40.4,0C383.5,431.8,377.1,419.9,376.9,408.3z
	 M489.1,405.2c-0.5-10.1-5-17.7-14.1-21.9c-9.1-4.2-17.9-2.9-25.6,3.7c-7.8,6.7-9.1,6.8-16.7,0.1c-9.7-8.7-24.3-8-33.3,1.6
	c-8.7,9.4-8.6,23.8,0.3,33c9.1,9.4,23.7,9.8,33.3,1c7-6.4,8.8-6.4,15.8-0.1c7.5,6.8,16.2,8.4,25.5,4.5
	C483.8,422.9,488.5,415.3,489.1,405.2z"/>
<path d="M257,301.2c0,7.5,0,15,0,22.5c-0.1,10.6-6.5,17.2-17,17.3c-15.5,0.1-31,0.1-46.4,0c-9.6,0-16.4-6.7-16.5-16.3
	c-0.1-15.8-0.1-31.6,0-47.4c0.1-9.6,6.9-16.2,16.5-16.3c15.6-0.1,31.3-0.1,46.9,0c9.9,0.1,16.5,6.8,16.5,16.7
	C257.1,285.6,257,293.4,257,301.2z M208.7,293c0,5.6,0,10.6,0,16.2c-5.4,0-10.5,0-15.4,0c0,5.5,0,10.4,0,15.5c16,0,31.7,0,47.4,0
	c0-5.4,0-10.4,0-15.8c-5.3,0-10.2,0-15.3,0c0-5.4,0-10.5,0-16.1c5.4,0,10.4,0,15.4,0c0-5.5,0-10.4,0-15.5c-16,0-31.7,0-47.4,0
	c0,5.4,0,10.4,0,15.7C198.6,293,203.4,293,208.7,293z"/>
<path d="M232.9,421.4c0,5.2,0,10,0,15.2c-15.8,0-31.5,0-47.6,0c0-5,0-10,0-15.2C201.2,421.4,217,421.4,232.9,421.4z"/>
<path d="M313.2,436.7c0-5.3,0-10.2,0-15.4c15.8,0,31.4,0,47.4,0c0,4.9,0,10,0,15.4C345,436.7,329.3,436.7,313.2,436.7z"/>
<path d="M392.6,284.8c-5.2,0-10.1,0-15.3,0c0-7.9,0-15.6,0-23.6c5.1,0,10,0,15.3,0C392.6,268.9,392.6,276.6,392.6,284.8z"/>
<path d="M409.2,284.7c0-7.8,0-15.3,0-23.3c5,0,10,0,15.4,0c0,7.6,0,15.3,0,23.3C419.6,284.7,414.5,284.7,409.2,284.7z"/>
<path d="M456.7,284.9c-5.3,0-10.1,0-15.3,0c0-7.7,0-15.5,0-23.5c4.9,0,9.9,0,15.3,0C456.7,269,456.7,276.7,456.7,284.9z"/>
<path d="M473.3,261.2c5.3,0,10.3,0,15.4,0c0,7.8,0,15.4,0,23.4c-5,0-10,0-15.4,0C473.3,277,473.3,269.3,473.3,261.2z"/>
<path d="M200.6,396.9c-5.2,0-10,0-15.2,0c0-5.1,0-10.2,0-15.6c5,0,10,0,15.2,0C200.6,386.5,200.6,391.7,200.6,396.9z"/>
<path d="M232.8,381.4c0,5.2,0,10.1,0,15.3c-5.2,0-10.3,0-15.6,0c0-5.1,0-10,0-15.3C222.2,381.4,227.3,381.4,232.8,381.4z"/>
<path d="M264.9,381.4c0,5.2,0,10,0,15.2c-5.1,0-10.2,0-15.6,0c0-5,0-10,0-15.2C254.6,381.4,259.7,381.4,264.9,381.4z"/>
<path d="M296.8,381.4c0,5.2,0,10.2,0,15.4c-5.2,0-10.3,0-15.6,0c0-5.1,0-10.1,0-15.4C286.3,381.4,291.3,381.4,296.8,381.4z"/>
<path d="M313.4,381.2c5.1,0,10.1,0,15.3,0c0,5.2,0,10.2,0,15.6c-5,0-10,0-15.3,0C313.4,391.8,313.4,386.8,313.4,381.2z"/>
<path d="M360.8,381.3c0,5.2,0,10.1,0,15.4c-5.1,0-10.1,0-15.5,0c0-5,0-10.1,0-15.4C350.4,381.3,355.3,381.3,360.8,381.3z"/>
</svg>
