<?xml version="1.0" encoding="utf-8"?>
<!-- Generator: Adobe Illustrator 22.1.0, SVG Export Plug-In . SVG Version: 6.00 Build 0)  -->
<svg version="1.1" id="Слой_1" xmlns="http://www.w3.org/2000/svg" xmlns:xlink="http://www.w3.org/1999/xlink" x="0px" y="0px"
	 viewBox="0 0 568 521" style="enable-background:new 0 0 568 521;" xml:space="preserve">
<path d="M288.2,5.2c139.9,0,255.7,116,255.6,256.1c0,139.9-116.1,255.6-256.3,255.5C147.7,516.8,32.1,400.7,32.2,260.4
	C32.3,120.9,148.3,5.1,288.2,5.2z M528.2,260.9c0-133.6-106.3-240-239.9-240.1C154.6,20.8,47.9,127,47.8,260.4
	C47.8,394.7,153.9,501.2,288,501.2C421.9,501.2,528.2,394.8,528.2,260.9z"/>
<path d="M511.8,260.6c-0.1,122.3-99.7,222.8-221.3,224.2C166.3,486.1,65.1,384.7,64.2,262.7c-0.9-123.5,100.1-224.5,222-225.4
	C409.8,36.3,511.3,137.6,511.8,260.6z M464.7,149.9c-17.2-27.1-38.7-48.6-65.6-65.6c-1.2,1.9-2.1,3.4-3,4.9
	c-3.1,5.3-6.1,10.7-9.3,16c-1.9,3.2-5,5-8.4,3.6c-2.4-1-4.9-3.5-5.8-5.9c-0.7-1.8,0.6-4.8,1.7-6.9c3.5-6.5,7.3-12.9,11.2-19.6
	c-28.5-14.7-58-22.4-89.7-23.5c0,7.8,0,14.7,0,21.7c0,6.4-2.9,10.1-7.8,10.1c-4.9,0-7.8-3.8-7.8-10.1c0-7.1,0-14.2,0-21.8
	c-32,1.4-61.5,8.9-89.6,23.7c4,7,8,13.4,11.4,20c1.2,2.3,1.9,5.7,1,7.8c-0.9,2.1-4.1,4.6-6.2,4.5c-2.6-0.1-6.1-2-7.6-4.2
	c-4.4-6.4-8-13.3-12.2-20.4c-27,17.1-48.6,38.6-65.6,65.6c6.8,4,13.1,7.6,19.4,11.3c5.1,3,6.9,7.4,4.7,11.5c-2.3,4.3-7,5.1-12.6,2
	c-6.3-3.6-12.6-7.3-19.3-11.2c-14.7,28.2-22.3,57.8-23.6,89.7c8.2,0,15.9,0,23.5,0c3.9,0,7.3,1.8,7.8,5.6c0.3,2.7-1,6-2.7,8.2
	c-1.1,1.4-4.2,1.7-6.4,1.7c-7.3,0.2-14.5,0.1-21.7,0.1c-1.6,22.4,11.2,70.9,23.6,89.4c1.5-0.9,3.1-1.7,4.7-2.6
	c5.5-3.1,10.8-6.8,16.6-9.2c2.3-1,6.7-0.5,8.4,1.1c1.8,1.7,2.3,5.6,2,8.4c-0.2,1.8-2.8,3.5-4.7,4.7c-6.3,3.9-12.8,7.5-19.5,11.4
	c17.2,27.1,38.7,48.8,65.7,65.7c4-7,7.6-13.4,11.4-19.6c1.2-1.9,3-4.5,4.7-4.7c2.8-0.3,6.3,0.3,8.5,2c2.9,2.2,2.8,5.8,0.9,9.1
	c-3.9,6.9-7.9,13.8-12,21c28.4,14.7,57.9,22.4,89.7,23.5c0-7.7,0-14.7,0-21.7c0-6.4,2.9-10.1,7.8-10.2c4.9,0,7.8,3.7,7.9,10.1
	c0,7.1,0,14.2,0,21.8c32-1.4,61.5-8.9,89.7-23.7c-4.2-7.3-8.1-14-12-20.8c-1.9-3.2-2.2-6.9,0.8-9.1c2.2-1.7,5.7-2.4,8.5-2.1
	c1.7,0.2,3.6,2.7,4.8,4.6c3.9,6.3,7.5,12.8,11.5,19.7c27.1-17,48.7-38.6,65.7-65.7c-6.9-4-13.3-7.5-19.4-11.4
	c-2-1.3-4.6-3.2-4.9-5.2c-0.4-2.6,0.4-6,2-8.1c2.2-2.9,5.8-2.9,9.1-1.1c6.9,3.9,13.8,7.9,20.7,11.9c12.2-17.3,26.5-72,23.3-89.4
	c-3.7,0-7.5,0-11.3,0c-3.8,0-7.7,0.1-11.5,0c-4.8-0.2-8.2-3.3-8.4-7.5c-0.2-4.4,3.3-7.8,8.4-8.1c2-0.1,4,0,6,0c5.8,0,11.5,0,17.6,0
	c-1.5-32-9-61.5-23.7-89.6c-6.9,3.9-13.3,7.8-19.9,11.3c-2,1-4.8,2.3-6.4,1.6c-2.4-1-5-3.3-6-5.7c-1.5-3.6,0.4-6.8,3.8-8.7
	C450.7,158.1,457.5,154.1,464.7,149.9z"/>
<path d="M295.8,213.7c21.1,5.6,34,18.6,39.4,39.2c10.8,0,21.6,0,32.9,0c0-4.9,0.1-9.5,0-14.1c-0.1-3.8,0.8-7.6,4.6-8.5
	c2.8-0.7,6.8-0.2,9.1,1.5c10.1,7.1,19.8,14.7,29.6,22.2c6,4.6,5.9,9.6-0.1,14.3c-4.5,3.5-9,6.9-13.5,10.3c-4.4,3.2-8.7,2.8-11.5-0.8
	c-2.9-3.7-2.1-8.2,2.3-11.7c1.9-1.5,3.8-3,6.3-5c-3.6-2.8-6.7-5.1-10.5-8.1c-0.2,2.1-0.4,3.4-0.4,4.8c-0.1,8.8-2.4,11.1-11.4,11.1
	c-12.3,0-24.6,0-36.8,0c-11.7,28.7-30.2,42.7-52,39.8c-22.9-3.1-40.3-20.5-43.3-43.3c-2.9-21.9,11.1-40.3,39.6-51.9
	c0-15.9,0-31.8,0-48.6c-4.8,0-9.6,0.1-14.4,0c-8.1-0.1-11.4-5.4-7.8-12.7c7.4-15.1,15-30.1,22.5-45.1c1.7-3.4,4-5.9,8-5.7
	c3.9,0.2,6.1,2.7,7.7,6.1c3.3,7.1,6.9,14,10.4,21c2.7,5.5,1.8,10-2.5,12.1c-4.3,2.1-8.6,0.3-11.3-5c-1.4-2.6-2.7-5.2-4.6-8.9
	c-4,7.9-7.5,14.8-11.4,22.6c3.3,0,5.7,0,8.1,0c8.7,0,11.2,2.4,11.2,11.3c0,15.8,0,31.7,0,47.5C295.8,209.8,295.8,211.6,295.8,213.7z
	 M320.2,261.1c0-19.2-13.2-32.3-32.3-32.3c-19.1,0-32.1,13.2-32,32.5c0,18.9,13.4,31.9,32.8,31.8C307,293.1,320.2,279.7,320.2,261.1
	z"/>
</svg>
