<?xml version="1.0" encoding="utf-8"?>
<!-- Generator: Adobe Illustrator 22.1.0, SVG Export Plug-In . SVG Version: 6.00 Build 0)  -->
<svg version="1.1" id="Слой_1" xmlns="http://www.w3.org/2000/svg" xmlns:xlink="http://www.w3.org/1999/xlink" x="0px" y="0px"
	 viewBox="0 0 568 521" style="enable-background:new 0 0 568 521;" xml:space="preserve">
<path d="M525.1,180c0,29.3,1.1,58.7-0.2,88c-3.3,71.6-31.7,132.3-83.2,182c-23.6,22.8-50.9,40.2-81.2,52.9
	c-11.5,4.8-23,9.7-34.6,14.3c-2.4,1-5.8,1.6-8,0.7c-26.9-11.1-54.4-21-78.8-37.4c-65.8-44-105.8-104.8-118.9-182.9
	c-2.5-14.7-3.3-29.8-3.5-44.8c-0.4-55.2-0.2-110.3-0.2-165.5c0-8.8,0.7-9.8,8.9-12.7C188.6,52.9,251.8,31,315,9.3
	c3.6-1.2,8.4-1.2,12,0C390.4,31,453.8,53,517.1,74.9c7.3,2.5,8.3,4,8.3,11.6c0,31.2,0,62.3,0,93.5C525.4,180,525.2,180,525.1,180z
	 M509.1,183.9c0.1,0,0.3,0,0.4,0c0-29.5-0.1-59,0.1-88.5c0-4.8-1.4-6.8-6-8.4c-59.5-20.3-118.9-40.9-178.4-61.3
	c-2.6-0.9-5.9-0.9-8.5,0C257.2,46.1,197.6,66.8,138,87.2c-4.1,1.4-5.6,3.2-5.6,7.7c0.2,52.3-0.1,104.6,0.3,157
	c0.1,14.8,0.9,29.7,3.4,44.2c11.8,70.3,47.4,125.9,105.5,167.2c23.7,16.8,50.7,27.1,77.3,38.1c1.6,0.6,3.9,0.2,5.6-0.5
	c9.4-3.8,18.7-7.8,28.1-11.7c37.6-15.5,69.9-38.5,96.3-69.5c37.1-43.8,57.7-94.3,60.1-151.7C510,239.9,509.1,211.9,509.1,183.9z"/>
<path d="M304.9,296.8c1.3-2.2,2.3-3.7,3.1-5.2c25.4-44.9,50.8-89.8,76.2-134.7c6-10.6,16.3-16.1,26.8-14.4
	c18.7,3,28.4,22.4,19.2,39.1c-11.9,21.5-24.2,42.9-36.3,64.4c-20,35.5-40.1,71-60.1,106.5c-10.7,19-31,21.1-45.2,4.7
	c-19-21.9-37.9-43.9-56.8-65.8c-10-11.7-9.1-27.9,2-37.5c11-9.5,27-8.1,37,3.3C282.1,270,293.2,283.1,304.9,296.8z M251.6,262.9
	c-3,1.1-5.2,1.5-6.9,2.7c-5.4,3.7-5.6,10.3-0.6,16c18.5,21.4,37.1,42.8,55.6,64.2c7.6,8.7,14.6,8.1,20.3-2
	c31.5-55.6,62.9-111.2,94.4-166.8c4.5-7.9,3.9-13.7-1.7-17c-5.9-3.5-11.1-1.1-15.8,7.2c-27.4,48.4-54.7,96.8-82.2,145.1
	c-1.4,2.4-3.8,4.7-6.3,5.8c-4.1,1.8-7.2-0.9-9.8-4c-13.2-15.3-26.3-30.5-39.6-45.7C257,266.2,254,264.7,251.6,262.9z"/>
<path d="M313,78c-4.6,1-8.5,2-12.4,2.8c-5,1-9.3-1.7-10.3-6.3c-1-4.3,1.7-8.4,6.6-9.6c7.4-1.7,14.9-3.3,22.4-4.7
	c5.6-1,9.6,2.5,9.7,8.5c0.1,23,0.1,45.9,0,68.9c0,5.2-3.2,8.4-7.8,8.5c-4.9,0.1-8.1-3.2-8.1-8.7c-0.1-17.8,0-35.6,0-53.4
	C313,82.2,313,80.3,313,78z"/>
<path d="M154.9,132.6c0-6.2,0.1-12.3,0-18.5c-0.1-4.8,2-7.8,6.6-9.3c15.8-5.2,31.5-10.5,47.3-15.8c5.3-1.7,9.8,0.1,11.2,4.3
	c1.5,4.6-1,8.6-6.6,10.5c-12.7,4.3-25.5,8.7-38.3,12.7c-3.4,1.1-4.3,2.6-4.2,6c0.2,9.5,0.1,19,0.1,28.5c0,6-3.5,9.9-8.3,9.7
	c-4.8-0.2-7.6-3.8-7.7-9.8C154.9,144.9,154.9,138.7,154.9,132.6z"/>
<path d="M313,424.3c0-7.3,0-14.7,0-22c0-5.8,3.3-9.4,8.2-9.3c4.7,0.1,7.8,3.6,7.8,9.1c0.1,14.7,0.1,29.3,0,44c0,5.9-3.2,9.3-8.2,9.2
	c-4.8-0.1-7.7-3.4-7.8-9C312.9,438.9,313,431.6,313,424.3z"/>
<path d="M154.9,206c0-4.5-0.1-9,0-13.5c0.2-4.6,3.2-7.6,7.4-7.9c4.4-0.3,8.3,2.7,8.4,7.4c0.3,9.3,0.3,18.7,0,28
	c-0.1,4.6-4,7.6-8.4,7.4c-4.2-0.3-7.2-3.3-7.4-7.9C154.8,215,154.9,210.5,154.9,206z"/>
<path d="M329,186.7c0,2,0.1,4,0,6c-0.3,4.6-3.8,7.8-8.1,7.7c-4.2-0.1-7.5-3.2-7.8-7.6c-0.2-4-0.2-8,0-12c0.2-4.8,3.4-7.9,7.9-8
	c4.4,0,7.7,3.1,8,7.8C329.1,182.7,329,184.7,329,186.7z"/>
<path d="M257.8,83c0,4.3-3.5,7.9-7.8,8c-4.6,0.1-8.2-3.4-8.1-8.1c0.1-4.4,3.6-7.9,7.9-7.9C254,75.1,257.8,78.8,257.8,83z"/>
</svg>
