<?xml version="1.0" encoding="utf-8"?>
<!-- Generator: Adobe Illustrator 22.1.0, SVG Export Plug-In . SVG Version: 6.00 Build 0)  -->
<svg version="1.1" id="Layer_1" xmlns="http://www.w3.org/2000/svg" xmlns:xlink="http://www.w3.org/1999/xlink" x="0px" y="0px"
	 viewBox="0 0 32 32" style="enable-background:new 0 0 32 32;" xml:space="preserve">
<style type="text/css">
	.st0{fill:#959595;}
</style>
<path class="st0" d="M25.9,23.1L18.8,16l7.1-7.1c0.8-0.8,0.8-2,0-2.8c-0.8-0.8-2-0.8-2.8,0L16,13.2L8.9,6.1c-0.8-0.8-2-0.8-2.8,0
	s-0.8,2,0,2.8l7.1,7.1l-7.1,7.1c-0.8,0.8-0.8,2,0,2.8c0.8,0.8,2,0.8,2.8,0l7.1-7.1l7.1,7.1c0.8,0.8,2,0.8,2.8,0
	C26.7,25.1,26.7,23.9,25.9,23.1z"/>
</svg>
