<?xml version="1.0" encoding="utf-8"?>
<!-- Generator: Adobe Illustrator 23.0.3, SVG Export Plug-In . SVG Version: 6.00 Build 0)  -->
<svg version="1.1" id="Layer_1" xmlns="http://www.w3.org/2000/svg" xmlns:xlink="http://www.w3.org/1999/xlink" x="0px" y="0px"
	 viewBox="0 0 1000 145" style="enable-background:new 0 0 1000 145;" xml:space="preserve">
<style type="text/css">
	.st0{fill:#0041FF;}
</style>
<g>
	<path class="st0" d="M49.3,0C89,0,101.8,31.3,95.4,59.7H27.9c3.2,14,18,19.8,33.7,19.8c11,0,20.8-2.2,28.9-5.8v21.8
		c-9,3.8-20.8,6-35.1,6C25.2,101.4,0,84,0,50.7C0,14.6,27.7,0,49.3,0z M50.3,21.2c-11.8,0-22.2,7.4-22.6,20.6h42.7
		C71.5,35.1,67.7,21.2,50.3,21.2z"/>
	<path d="M188,38.3v23.4h-74.3V38.3H188z"/>
	<path d="M258.3,0c27.9,0,52.9,17.2,52.9,50.7c0,33.5-25,50.7-52.9,50.7c-27.7,0-52.9-17.2-52.9-50.7C205.4,17.2,230.5,0,258.3,0z
		 M258.3,24.8c-15.8,0-24.6,11.2-24.6,26c0,14.8,8.8,26,24.6,26c16,0,24.8-11.2,24.8-26C283,35.9,274.3,24.8,258.3,24.8z"/>
	<path d="M365.1,0c13.6,0,25.6,3.4,35.3,8.2v22.8c-8.2-5.6-22.2-9.8-33.5-9.8c-6.2,0-13.4,1.8-13.4,7.6c0,16,54.1,8,54.1,43.1
		c0,22.6-20.6,29.5-43.5,29.5c-14.6,0-28.3-3.2-38.1-9v-23c10.4,6.8,25,10.2,36.5,10.2c10.2,0,16.8-1.8,16.8-7.2
		c0-15.4-54.1-8.6-54.1-42.9C325.2,7.4,344.9,0,365.1,0z"/>
	<path d="M517,80.2c1.6,0,3.4-0.2,5.2-0.8v18.2c-4.4,1.6-10,2.8-15.4,2.8c-9.8,0-17.2-3.6-21.2-10.8c-9.4,7.4-20.4,11.8-34.5,11.8
		c-18,0-33.5-10.4-33.5-29.3c0-24.4,23-31.9,42.1-31.9c7.6,0,16,1,22.8,2.6v-3.4c0-9.6-7.6-16.2-22.6-16.2c-13.2,0-25,3.6-33.9,7.2
		v-24c7.8-2.6,22.4-6.4,37.1-6.4c28.7,0,47.1,11.8,47.1,43.3v30.5C510.2,78.8,513.4,80.2,517,80.2z M445.9,69.9
		c0,7.2,6.6,11.8,15,11.8c7.8,0,15.2-2.2,21.6-7.8v-15c-4.2-1-10.6-2.2-16.4-2.2C455.9,56.7,445.9,60.1,445.9,69.9z"/>
	<path d="M576.8,0c17.6,0,28.5,8.2,34.7,16.8v-14h24.4V96c0,36.5-26.9,49.3-55.1,49.3c-15,0-28.9-3.4-40.5-9V112
		c10.8,6.4,23.8,10,36.9,10c17,0,31.1-5.8,31.1-24.8v-8.8c-6.2,6.8-16.4,13-31.5,13c-30.5,0-46.9-24.6-46.9-50.7
		C529.9,24.6,546.3,0,576.8,0z M583.4,23.4c-15.8,0-25.2,12.4-25.2,27.3c0,15,9.4,27.3,25.2,27.3c12.2,0,21.2-7.4,25-15.4V39.3
		C604.6,30.9,595.6,23.4,583.4,23.4z"/>
	<path d="M707,0c27.9,0,52.9,17.2,52.9,50.7c0,33.5-25,50.7-52.9,50.7c-27.7,0-52.9-17.2-52.9-50.7C654.1,17.2,679.2,0,707,0z
		 M707,24.8c-15.8,0-24.6,11.2-24.6,26c0,14.8,8.8,26,24.6,26c16,0,24.8-11.2,24.8-26C731.7,35.9,723,24.8,707,24.8z"/>
	<path class="st0" d="M791.2,101.2c-9,0-17-5.2-17-16.4s8-16.4,17-16.4c9,0,16.8,5.2,16.8,16.4S800.2,101.2,791.2,101.2z"/>
	<path d="M891,0.8v26.9c-15.2-2.6-29.7,3.2-35.5,14.6v56.3h-27.7V2.8h24.6v14.4C859.1,6.6,873.1-1,891,0.8z"/>
	<path d="M1000,2.8v95.8h-24.6V86.4c-7.4,8.6-18.4,15-31.9,15c-25.9,0-38.9-17.2-38.9-39.3V2.8h27.7v55.7c0,12.8,7,19,18.4,19
		c10,0,17.4-6.4,21.6-12.2V2.8H1000z"/>
</g>
</svg>
