<svg width="926" height="683" viewBox="0 0 926 683" fill="none" xmlns="http://www.w3.org/2000/svg">
<path d="M642.933 40.1133C714.933 -35.0867 802.933 18.1133 837.933 54.1133C840.266 187.447 843.533 462.313 837.933 495.113C832.333 527.913 758.266 504.113 721.933 488.113C690.933 483.78 616.933 502.513 568.933 612.113C508.933 749.113 53.9328 677.113 7.93281 464.113C-28.8672 293.713 71.2661 257.113 125.933 260.113C150.266 261.78 201.933 244.113 213.933 160.113C225.933 76.1133 288.933 100.447 318.933 123.113C353.599 147.447 427.333 181.513 444.933 123.113C462.533 64.7133 497.667 73.3333 513 85C528 99.5 570.933 115.313 642.933 40.1133Z" fill="#F1F5FF"/>
<path d="M197.5 485L281.5 323.5L294 334.5L204 488L197.5 485Z" fill="url(#paint0_linear)"/>
<path d="M347.5 547L340 366.5L357.5 359L353.5 547H347.5Z" fill="url(#paint1_linear)"/>
<path d="M494 524L474 432.5H462C470.167 463 487.1 524.4 489.5 526C491.9 527.6 493.5 525.333 494 524Z" fill="url(#paint2_linear)"/>
<path d="M246.5 150C252.9 144.8 300.833 142.167 324 141.5L341.5 247.5C431.833 277.333 574 343.6 420 370C227.5 403 230 187.5 233 173.5C236 159.5 238.5 156.5 246.5 150Z" fill="url(#paint3_linear)"/>
<path d="M401.139 591.141L373 315H393.356C397.946 404.89 406.887 585.964 405.929 591.141C404.971 596.319 402.337 593.298 401.139 591.141Z" fill="url(#paint4_linear)"/>
<path fill-rule="evenodd" clip-rule="evenodd" d="M548.141 520.983C529.749 480.277 516.449 444.832 511.11 426.132C501.968 394.111 495.014 365.935 493.257 355.413C489.065 330.321 525.499 328.86 530.314 341.33C537.603 360.204 550.328 422.217 565.617 515.884L548.141 520.983ZM369.117 523.5C382.617 490 432.615 414.5 455.615 392C463.805 390.303 465.652 386.425 473.115 385C495.298 380.765 501.356 394.5 491.117 416.5C444.976 437 380.117 550.547 376.617 555C351.117 555 361.79 541.681 369.117 523.5Z" fill="url(#paint5_linear)"/>
<path fill-rule="evenodd" clip-rule="evenodd" d="M475.559 340.578L430.117 311L405.117 290.5L415.117 286.5C481.617 283.5 525.675 309.161 527.617 315.5C527.638 315.568 527.617 315.5 530.566 327.465C530.61 327.523 527.574 315.441 527.617 315.5C545.117 339.567 558.677 469.206 562.117 478.004L528.584 483.007C515.756 435.44 474.716 402.303 475.806 345.334C475.512 343.662 475.438 342.078 475.559 340.578Z" fill="url(#paint6_linear)"/>
<path fill-rule="evenodd" clip-rule="evenodd" d="M437.617 386C429.266 384.328 368.252 373.509 361.672 372.355C275.617 346 267.788 303.645 275.117 254L392.417 292.5C405.21 296.175 471.697 324.057 506.194 338.887C529.026 348.702 521.828 384.085 508.899 393.294C508.829 393.858 508.596 394.242 508.182 394.414C473.617 447 406.998 536.167 388.617 541L365.617 524.5L437.617 386Z" fill="url(#paint7_linear)"/>
<path fill-rule="evenodd" clip-rule="evenodd" d="M357.424 537.04C353.005 538.236 349.932 539.456 348.203 540.697C346.101 542.208 343.285 544.762 339.755 548.359C341.507 550.798 357.251 572.715 386.989 614.112C393.865 611.763 396.206 608.585 394.012 604.581C391.818 600.576 390.028 597.225 388.641 594.53L380.312 554.181C380.152 553.405 379.392 552.905 378.616 553.066C378.603 553.068 378.589 553.071 378.576 553.074L372.4 554.533C368.361 552.267 365.577 550.069 364.046 547.939C362.803 546.207 361.785 543.314 360.992 539.26L360.992 539.26C360.687 537.704 359.179 536.689 357.623 536.993C357.556 537.006 357.49 537.022 357.424 537.04Z" fill="#162A74"/>
<path fill-rule="evenodd" clip-rule="evenodd" d="M539.72 511.52C537.279 515.393 535.843 518.371 535.412 520.455C534.888 522.99 534.545 526.776 534.384 531.814C537.325 532.422 563.752 537.888 613.666 548.212C617.135 541.827 616.706 537.904 612.379 536.443C608.053 534.981 604.467 533.728 601.621 532.684L568.17 508.634C567.526 508.172 566.629 508.318 566.166 508.962C566.158 508.973 566.151 508.984 566.143 508.995L562.586 514.251C558.08 515.319 554.543 515.587 551.974 515.055C549.886 514.623 547.178 513.184 543.849 510.738L543.849 510.738C542.571 509.799 540.775 510.073 539.836 511.351C539.795 511.406 539.757 511.462 539.72 511.52Z" fill="#162A74"/>
<path fill-rule="evenodd" clip-rule="evenodd" d="M374.362 73.3267C367.73 65.5414 363.241 56.0004 363.991 45.3094C366.152 14.5057 409.032 21.2821 417.373 36.8292C425.714 52.3762 424.723 91.8126 413.943 94.5913C409.644 95.6995 400.486 92.985 391.165 87.3668L397.015 128.758H362.47L374.362 73.3267Z" fill="url(#paint8_linear)"/>
<path fill-rule="evenodd" clip-rule="evenodd" d="M348.93 35.0555C347.814 33.9498 347.205 32.3715 346.679 30.8729C346.132 29.3162 345.601 27.7434 345.238 26.1231C344.513 22.8856 344.506 19.1623 346.815 16.6484C348.668 14.6325 351.447 13.7283 354.012 13.5318C355.721 13.4007 357.476 13.6401 359.114 14.1786C360.739 14.7128 362.14 15.7776 363.716 16.4384C363.776 12.9496 364.374 9.29896 366.144 6.31997C367.847 3.45369 370.563 1.84524 373.655 1.41971C376.829 0.983009 379.964 1.72579 382.806 3.26248C383.517 3.64733 384.222 4.05052 384.896 4.50685C385.461 4.88898 386.048 5.34917 386.711 5.50457C387.45 5.67802 387.816 5.25134 388.296 4.71238C388.859 4.08045 389.493 3.52387 390.164 3.03045C393.132 0.849091 397.026 -0.0478015 400.464 1.25973C402.048 1.86214 403.588 2.88522 404.663 4.29501C405.621 5.55169 406.304 7.54514 407.627 8.42069C408.188 8.79237 408.584 8.29995 409.095 7.93601C409.862 7.38916 410.594 6.78574 411.371 6.2538C412.461 5.50643 413.643 4.94741 414.907 4.6548C416.759 4.2264 419.318 4.32681 419.847 6.75194C420.046 7.66287 419.894 8.63711 419.829 9.55491C419.741 10.8152 419.649 12.075 419.54 13.3334C419.457 14.2889 419.352 15.2117 419.171 16.15C419.075 16.6501 418.774 17.5825 418.989 18.0834C419.257 18.7095 420.494 18.3535 421.022 18.3753C422.066 18.4184 423.114 18.6015 424.079 19.0475C424.827 19.3932 425.614 19.9017 425.93 20.7591C426.124 21.2857 426.073 21.8267 425.981 22.3685C425.871 23.0188 425.997 23.3636 426.079 24.0198C427.481 23.3294 432.339 21.7956 432.95 24.3081C433.154 25.1447 432.69 26.09 432.337 26.7955C431.717 28.033 430.903 29.1641 430.072 30.2427C428.338 32.493 426.268 34.4339 424.041 36.0937C426.651 37.2537 427.332 40.6753 425.073 42.7139C424.075 43.6139 422.734 43.8143 421.476 43.7567C421.015 43.7357 420.351 43.5586 419.989 43.6388C419.794 43.682 419.585 43.8472 419.315 43.8657C417.539 43.9873 415.535 43.5595 413.799 43.1655C410.706 42.4634 407.778 40.998 405.387 38.7662C404.773 38.1937 404.267 37.8642 403.441 37.8726C402.717 37.8799 402.008 38.0783 401.285 38.0966C399.372 38.1455 397.648 37.2105 395.872 36.5882C395.763 38.9874 395.08 41.6298 394.098 43.7882C393.298 45.5484 391.627 45.8042 389.985 45.9586C384.733 46.4527 379.463 45.9013 374.204 45.9086C379.294 47.0591 384.554 47.5333 389.599 48.8873C391.88 49.4992 390.138 51.0361 389.163 52.1016C387.558 53.8561 386.364 56.0301 385.536 58.3203C383.046 55.0744 378.645 52.9358 374.745 53.9329C370.437 55.0345 367.403 60.8608 370.158 65.0495C371.758 67.4811 374.646 68.4198 377.049 69.4645C375.175 71.4139 374.721 74.2929 373.593 76.718C373.036 77.914 372.255 79.2662 371.01 79.683C370.55 79.8372 370.01 79.8504 369.646 80.2258C369.196 80.6906 369.089 81.2102 368.514 81.6097C366.221 83.2041 362.639 83.0812 360.606 81.0005C358.768 79.1188 359.246 76.1411 360.781 74.2333C358.337 73.2147 353.885 71.9046 354.856 68.0973C349.561 67.7457 336.704 59.1574 343.811 52.8818C339.911 50.6773 336.327 45.29 338.833 40.541C340.762 36.8841 345.249 35.2494 348.93 35.0555Z" fill="url(#paint9_linear)"/>
<path d="M435.539 152.667C426.368 131.777 407.195 118.86 401.039 112.167L386.039 114.182C395.072 137.146 417.597 198.728 432 216C446.403 233.272 497.354 232.539 527.873 233L530.5 218.5L482.675 205.472C449.539 196.667 444.1 172.167 435.539 152.667Z" fill="url(#paint10_linear)"/>
<path fill-rule="evenodd" clip-rule="evenodd" d="M401.494 112.935C432.451 178.567 447.098 200.089 436.658 227.946C428.036 250.95 296.228 279.293 281.949 256.744C276.168 247.616 299 205.5 298.5 201C309.096 140.853 311.18 131.976 357.523 104.925L358.002 99.0534C358.198 96.6529 360.63 94.8429 363.432 95.0108L397.69 97.0624C400.493 97.2302 402.606 99.3123 402.41 101.713L401.494 112.935Z" fill="url(#paint11_linear)"/>
<path d="M739.112 439.5L760.112 301H747.112C742.612 346 733.912 436.7 735.112 439.5C736.312 442.3 738.279 440.667 739.112 439.5Z" fill="url(#paint12_linear)"/>
<path d="M390.5 476.5L373 315H393.356C397.946 404.89 401.025 455.14 399 460C396.5 466 394 470 390.5 476.5Z" fill="url(#paint13_linear)"/>
<path d="M151.452 500.33L237.268 258L252.707 265.116C221.306 342.402 157.82 497.98 155.084 502.004C152.348 506.028 151.523 502.565 151.452 500.33Z" fill="url(#paint14_linear)"/>
<path d="M193.5 258.5V252.5L423 329.5L924.5 281.5V286L423 337.5L193.5 258.5Z" fill="url(#paint15_linear)"/>
<path d="M421.5 330.5L193 252.5L746 217L851 255.5L925.5 281.5L421.5 330.5Z" fill="#E7EDFC"/>
<path d="M562.408 228.722C558.45 215.954 527.52 221.581 529.323 221.74L528.705 228.722C528.919 230.41 536.659 230.006 542.658 231.199C548.658 232.392 553.967 234.808 556.285 237.359C559.565 239.995 565.574 238.937 562.408 228.722Z" fill="#FF9393"/>
<path opacity="0.39" d="M558.609 227.628C560.394 228.713 567.487 230.949 568.84 236.072" stroke="#EAEFFC"/>
<path opacity="0.39" d="M556.692 230.48L566.052 236.328L570.011 240.694" stroke="#EAEFFC"/>
<path opacity="0.39" d="M559.387 235.738L563.871 238.645L567.831 243.011" stroke="#EAEFFC"/>
<path d="M559 240.5L473.5 249L545 261L559 240.5Z" fill="white"/>
<path d="M565.5 158.5L545 261L669 252.5C676.333 219.5 691.2 152.7 692 149.5C692.8 146.3 691.667 145.5 691 145.5C651.833 148.167 572.8 153.5 570 153.5C567.2 153.5 565.833 156.833 565.5 158.5Z" fill="url(#paint16_linear)"/>
<path d="M473.5 253.5V249L544.5 261V265.5L473.5 253.5Z" fill="#C9D8FF"/>
<path d="M669 252.5L667.5 257L545 265.5V261L669 252.5Z" fill="#97B2F3"/>
<path d="M542.565 244.718C536.239 229.398 490.028 230.736 492.75 230.977L492.016 239.276C492.386 241.292 504.042 241.029 513.12 242.62C522.198 244.21 530.271 247.238 533.837 250.342C538.855 253.574 547.627 256.974 542.565 244.718Z" fill="url(#paint17_linear)"/>
<path opacity="0.39" d="M530.238 238.33C532.528 239.459 541.577 241.868 543.415 247.035" stroke="#EAEFFC"/>
<path opacity="0.39" d="M527.874 241.142L539.884 247.224L545.01 251.694" stroke="#EAEFFC"/>
<path opacity="0.39" d="M531.417 246.475L537.174 249.494L542.3 253.964" stroke="#EAEFFC"/>
<path d="M315 169C309 139.8 323 118 338.5 116C368.5 127.5 361.7 183.801 364.5 195C366.5 203 366.5 206.5 374 208.5L501.5 229V242.5C478.667 244.5 409.6 241.3 374 240.5C329.5 239.5 322.5 205.5 315 169Z" fill="url(#paint18_linear)"/>
<path d="M677 74.989L689.157 67.0071C691.203 65.6647 694.519 65.6642 696.565 67.0061L696.567 67.0071L728.933 88.2538C730.897 89.5427 732 91.2906 732 93.1131V245.5" stroke="#C1D1F7" stroke-width="5"/>
<path d="M750.864 245H713.136C711.956 245 711 246.343 711 248V249C711 250.657 711.956 252 713.136 252H750.864C752.044 252 753 250.657 753 249V248C753 246.343 752.044 245 750.864 245Z" fill="#A9BEF0"/>
<path fill-rule="evenodd" clip-rule="evenodd" d="M671.434 71.2746C682.348 75.2923 687.938 87.3965 683.92 98.3102L677.748 115.077L638.226 100.528L644.398 83.7609C648.416 72.8473 660.52 67.257 671.434 71.2746Z" fill="url(#paint19_linear)"/>
<path d="M656.868 111.172C667.782 115.19 677.27 116.704 678.062 114.554C678.853 112.405 670.647 107.405 659.734 103.388C648.82 99.3698 639.331 97.8555 638.54 100.005C637.748 102.155 645.954 107.154 656.868 111.172Z" fill="white"/>
<path d="M439.5 260L382.5 266L433 281L504 273L439.5 260Z" fill="white"/>
<path d="M504 276.5L432.5 285L383 269.5V266L432.5 281L504 272.5V276.5Z" fill="#C1D1F7"/>
<path fill-rule="evenodd" clip-rule="evenodd" d="M154.272 624.516C136.042 615.316 118.771 605.061 102.877 593.788L160 530C223 536 257 508 257 508C223.484 589.395 179.784 618.109 154.272 624.516Z" fill="#6487FC"/>
<path fill-rule="evenodd" clip-rule="evenodd" d="M136.135 614.829C120.81 606.169 106.325 596.712 92.9606 586.482L75.4478 570.433C101.18 512.427 162.954 392.951 204.187 379.094L210.343 456.127L195.905 459.67L209.064 468.562C205.401 502.642 185.719 577.42 136.135 614.829Z" fill="url(#paint20_linear)"/>
<path fill-rule="evenodd" clip-rule="evenodd" d="M62.1953 559.469C38.1531 535.051 20.2076 507.235 11.035 476.246C11.3503 461.241 13.8231 444.102 19.6009 425L30.1009 420L25.601 414C34.101 402.333 51.601 373.2 53.601 350C69.2676 371.167 97.801 422 86.601 456C75.401 490 75.601 535.833 77.101 554.5L62.1953 559.469Z" fill="url(#paint21_linear)"/>
<path opacity="0.26" d="M56.0739 360C60.5459 374.481 66.8066 409.054 56.0739 431.5C42.6581 459.557 37.4981 497.57 56.0739 503" stroke="white"/>
<path opacity="0.26" d="M46.5 405C47 410.333 50.2 420.5 59 418.5" stroke="white"/>
<path opacity="0.26" d="M28.5 449C28.6667 457.5 31.8 475 43 477" stroke="white"/>
<path opacity="0.26" d="M71.5 441C68.5 445.167 59.7 453.5 48.5 453.5" stroke="white"/>
<path opacity="0.26" d="M68 389.5C68.1667 392 67.3 398.3 62.5 403.5" stroke="white"/>
<path d="M109.384 598.295C87.2478 583.32 67.5599 566.448 51.3754 547.767C42.6263 490.164 77.7248 411.007 97.1238 377.5H108.624L103.624 368.5L151.124 308C196.229 464.702 143.444 564.957 109.384 598.295Z" fill="url(#paint22_linear)"/>
<g opacity="0.28">
<path d="M85.5 473C87 483.5 93.7 505.6 108.5 510" stroke="white"/>
<path d="M151 310C141.333 386.333 112.8 544.4 76 566" stroke="white"/>
<path d="M106.5 410.5C107.667 421.167 112.6 445.5 123 457.5" stroke="white"/>
<path d="M155.5 385C152.833 390.667 145.5 401.8 137.5 401" stroke="white"/>
<path d="M140.5 505.5C135.5 514.167 120.4 531.4 100 531" stroke="white"/>
</g>
<defs>
<linearGradient id="paint0_linear" x1="294" y1="377" x2="210" y2="406" gradientUnits="userSpaceOnUse">
<stop stop-color="#D5DFFA"/>
<stop offset="1" stop-color="#A0C1F7"/>
</linearGradient>
<linearGradient id="paint1_linear" x1="386" y1="369" x2="327" y2="562" gradientUnits="userSpaceOnUse">
<stop stop-color="#D5DFFA"/>
<stop offset="1" stop-color="#A0C1F7"/>
</linearGradient>
<linearGradient id="paint2_linear" x1="478" y1="432.5" x2="478" y2="526.55" gradientUnits="userSpaceOnUse">
<stop stop-color="#D1DDFA"/>
<stop offset="1" stop-color="#AAC7F8"/>
</linearGradient>
<linearGradient id="paint3_linear" x1="360.269" y1="141.5" x2="280" y2="373" gradientUnits="userSpaceOnUse">
<stop stop-color="#CBDAF3"/>
<stop offset="1" stop-color="#7799E6"/>
</linearGradient>
<linearGradient id="paint4_linear" x1="389.5" y1="315" x2="389.5" y2="594" gradientUnits="userSpaceOnUse">
<stop stop-color="#ADC0F7"/>
<stop offset="1" stop-color="#7A97EB"/>
</linearGradient>
<linearGradient id="paint5_linear" x1="463.073" y1="333.672" x2="463.073" y2="555" gradientUnits="userSpaceOnUse">
<stop offset="0.631769" stop-color="#FF9292"/>
<stop offset="1" stop-color="#FF7070"/>
</linearGradient>
<linearGradient id="paint6_linear" x1="483.617" y1="286.257" x2="483.617" y2="483.007" gradientUnits="userSpaceOnUse">
<stop offset="0.284589" stop-color="#2854CC"/>
<stop offset="1" stop-color="#0F2D81"/>
</linearGradient>
<linearGradient id="paint7_linear" x1="596" y1="343.5" x2="397.004" y2="541" gradientUnits="userSpaceOnUse">
<stop offset="0.268028" stop-color="#4A76E7"/>
<stop offset="1" stop-color="#00207B"/>
</linearGradient>
<linearGradient id="paint8_linear" x1="417" y1="24" x2="349" y2="121" gradientUnits="userSpaceOnUse">
<stop stop-color="#FF9E9E"/>
<stop offset="1" stop-color="#FF5858"/>
</linearGradient>
<linearGradient id="paint9_linear" x1="439" y1="-21" x2="355" y2="83" gradientUnits="userSpaceOnUse">
<stop stop-color="#46568F"/>
<stop offset="1" stop-color="#061446"/>
</linearGradient>
<linearGradient id="paint10_linear" x1="443" y1="71" x2="420" y2="179" gradientUnits="userSpaceOnUse">
<stop stop-color="#F7F7FA"/>
<stop offset="1" stop-color="#F8FAFF"/>
</linearGradient>
<linearGradient id="paint11_linear" x1="391" y1="129" x2="275" y2="276" gradientUnits="userSpaceOnUse">
<stop stop-color="#FCD506"/>
<stop offset="1" stop-color="#FF7C02"/>
</linearGradient>
<linearGradient id="paint12_linear" x1="696" y1="301" x2="748" y2="450" gradientUnits="userSpaceOnUse">
<stop stop-color="#CFD8F9"/>
<stop offset="1" stop-color="#AABAF4"/>
</linearGradient>
<linearGradient id="paint13_linear" x1="386.317" y1="315" x2="386.317" y2="476.5" gradientUnits="userSpaceOnUse">
<stop stop-color="#ADC0F7"/>
<stop offset="1" stop-color="#809AE7"/>
</linearGradient>
<linearGradient id="paint14_linear" x1="249.783" y1="263.768" x2="141.514" y2="498.668" gradientUnits="userSpaceOnUse">
<stop stop-color="#ADC0F7"/>
<stop offset="1" stop-color="#7A94DE"/>
</linearGradient>
<linearGradient id="paint15_linear" x1="287" y1="260" x2="559" y2="337.5" gradientUnits="userSpaceOnUse">
<stop offset="0.0294118" stop-color="#ADC2F5"/>
<stop offset="1" stop-color="#A3BBF3"/>
</linearGradient>
<linearGradient id="paint16_linear" x1="570" y1="128.5" x2="677.5" y2="247" gradientUnits="userSpaceOnUse">
<stop stop-color="#DAE5FF"/>
<stop offset="1" stop-color="#A9BFF3"/>
</linearGradient>
<linearGradient id="paint17_linear" x1="525.374" y1="234.356" x2="519.153" y2="259.536" gradientUnits="userSpaceOnUse">
<stop stop-color="#FFA8A8"/>
<stop offset="1" stop-color="#E24242"/>
</linearGradient>
<linearGradient id="paint18_linear" x1="393" y1="165" x2="309" y2="264" gradientUnits="userSpaceOnUse">
<stop stop-color="white"/>
<stop offset="1" stop-color="#E5F1F8"/>
</linearGradient>
<linearGradient id="paint19_linear" x1="642.5" y1="69.5" x2="691" y2="97" gradientUnits="userSpaceOnUse">
<stop stop-color="#E3ECFF"/>
<stop offset="1" stop-color="#94ACE7"/>
</linearGradient>
<linearGradient id="paint20_linear" x1="196" y1="411" x2="134" y2="608" gradientUnits="userSpaceOnUse">
<stop stop-color="#8DABF8"/>
<stop offset="1" stop-color="#4E75FE"/>
</linearGradient>
<linearGradient id="paint21_linear" x1="116" y1="391" x2="11" y2="513" gradientUnits="userSpaceOnUse">
<stop stop-color="#8AA3FD"/>
<stop offset="1" stop-color="#4169F5"/>
</linearGradient>
<linearGradient id="paint22_linear" x1="198" y1="367" x2="57" y2="531" gradientUnits="userSpaceOnUse">
<stop offset="0.00820433" stop-color="#8AA3FD"/>
<stop offset="1" stop-color="#4169F5"/>
</linearGradient>
</defs>
</svg>
