<svg xmlns="http://www.w3.org/2000/svg" viewBox="0 0 501 485"><path d="M377.1 421.3V458c0 4.1-.1 8.1-4.5 10.2-4.4 2.2-7.6-.2-10.9-2.7-8.1-6.1-16.2-12.2-24.6-18.5-8.5 6.3-16.9 12.6-25.2 18.9-3 2.3-6.1 4.2-10 2.3-4.1-2-4.9-5.5-4.8-9.6.1-12.3 0-24.6 0-37.4-1.9-.1-3.5-.2-5.1-.2H50c-23.5 0-41-17.5-41-41v-13.5c.1-6.5 2.9-9.4 9.5-9.4H73V47.9C73 21.8 89.8 5 115.8 5h330C472.4 5 489 21.6 489 48.3c0 3.8.1 7.7 0 11.5-.1 6.1-3.1 9.1-9.3 9.2h-51.5c-.8 0-1.6.1-3.2.2v6.3c0 100.7-.3 201.3.2 302 .1 26.2-19.8 45.2-43.3 43.6-1.4-.2-2.9.1-4.8.2zm-78.8-64.6c-1.5-4.5-2.7-8.4-3.9-12.3-1.3-4.2-2.5-8.5-3.9-12.7-.7-2.1-1.2-4.4-2.6-6-8.8-9.9-8.8-23.7 0-33.6 1.4-1.5 2.4-3.9 2.5-6 .9-13.6 10.5-23.2 24-24.1 2.1-.1 4.4-1.2 6-2.5 9.8-8.6 23.5-8.7 33.3-.2 1.8 1.5 4.5 2.6 6.9 2.8 13 1.2 22.5 10.9 23.4 23.8.2 2.2 1.2 4.7 2.7 6.4 8.3 9.6 8.2 22.6.7 32.6-5.7 7.6-5.3 17.9-10.1 26.1-.3.5 0 1.3 0 2v44.5c0 6.7.6 7.3 7.3 7.5 14 .4 24.6-10.5 24.6-25.6V63.9c0-14.5-2.2-29.5 8.2-42.9H115.3C98.8 21 89 30.8 89 47.2v309.6c69.8-.1 138.7-.1 209.3-.1zM25.2 373.2c-2.6 21.4 10.6 32.2 29.3 32 79-.6 157.9-.3 236.9-.3h5.2v-31.8c-90.6.1-180.8.1-271.4.1zm298-35.7c1.9 1.9 3.9 4.3 6.3 6.2 2.4 2 5.1 4.8 7.8 4.9 2.4.1 5.7-2.5 7.3-4.8 3.8-5.5 5.5-6.2 11.9-4.9 2.7.5 6.7-.1 8.5-1.8 1.8-1.7 2.5-5.7 2-8.4-1.3-6.9-.8-8.2 5.1-12.3 2.3-1.6 4.6-4.9 4.5-7.5 0-2.5-2.4-5.8-4.7-7.4-5.5-3.8-6.2-5.5-5-11.9.5-2.7 0-6.7-1.8-8.5-1.7-1.8-5.7-2.6-8.4-2.1-7 1.3-8.6 1-12.1-5.2-3.6-6.3-11.2-6.5-14.8-.3-3.9 6.6-5.3 7.1-12.4 5.2-6.7-1.8-12 3.4-10.5 10.1 1.8 8 1.6 8.5-5.3 12.8-5.7 3.5-5.8 10.7-.2 14.4 7.3 4.7 7.3 4.7 5.5 13.2-1.4 6.5 3.8 11.6 10.3 10 1.5-.3 3-.8 6-1.7zm-9.9 107.4c5.6-4.2 10.4-7.8 15.2-11.3 8.3-6.2 9.2-6.2 17.4-.1 4.8 3.6 9.7 7.2 15.1 11.3v-89.9c-2.7 1.3-5.1 1.8-6.7 3.2-10.5 9.3-23.8 9.2-34.3-.1-1.5-1.4-3.9-1.8-6.6-3-.1 30.6-.1 59.7-.1 89.9zM472.7 52.8c1.4-12.2-1-22.5-12.1-28.7-8.8-4.9-17.7-4.3-25.8 1.6-9.3 6.7-10.9 16.4-9.5 27.1h47.4z"/><path d="M368.8 157.3v15.4H185.4v-15.4h183.4zm-199.6-32.7v-15.4h159.6v15.4H169.2zm119.6 112.7v15.4H129.4v-15.4h159.4zm80-40v15.4H233.4v-15.4h135.4zm-104 80v15.4H129.4v-15.4h135.4zm-48-79.9v15.4h-87.6v-15.4h87.6zM193.2 84.7V69.3h63.4v15.4h-63.4zm-24.4 72.6v15.4h-39.4v-15.4h39.4zm135.8-72.5h-31.3V69.2h31.3v15.6z"/></svg>