<svg xmlns="http://www.w3.org/2000/svg" viewBox="0 0 568 521"><path d="M456.7 196.8h-15.5c-.1-2.5-.2-4.8-.3-7.4H73.1v94.3c0 15.2 10.1 25.3 25.4 25.4h22.3v15.3c-10.3 0-20.8 1.2-30.8-.3-19.3-2.8-32.8-19.5-32.8-38.9-.1-64-.1-128 0-192C57.1 70.5 74.6 53 97.4 53c99.5-.1 199-.1 298.5 0 9.8 0 19.8-.5 29.4 1.1 18 2.9 31.5 19.2 31.6 37.4.3 34.5.1 69 .1 103.5 0 .5-.2.9-.3 1.8zm-15.9-71.5H73.4v47.4h367.4v-47.4zM73.1 108.7H441V95.5c-.1-17-9.6-26.5-26.7-26.5H98c-13.4 0-24 9.3-24.9 21.8-.4 5.8 0 11.7 0 17.9z"/><path d="M336.7 485H179.3c-25.3 0-42.2-17-42.2-42.4V253.2c0-18.3 11.6-33.7 29-38.6 3.8-1.1 7.9-1.6 11.8-1.6 106.3-.1 212.6-.1 318.9 0 22.4 0 40.1 17.5 40.2 39.8.1 64.1.1 128.3 0 192.4 0 22.2-17.9 39.6-40.4 39.7-53.3.1-106.6.1-159.9.1zm-.2-16h159c15.3 0 25.5-10.1 25.5-25.3v-188c0-17.4-9.5-26.8-27-26.8H180.5c-18.3 0-27.5 9.3-27.5 27.8v185c0 17.7 9.4 27.3 27 27.3h156.5z"/><path d="M376.9 408.3c.2-34.2 33.4-53.3 59.8-37.9 3.1 1.8 5 2.1 8.3.2 16.5-10 37.7-6.3 50.3 8.4 12.8 14.9 13 36.4.5 51.4-12.6 15.2-33.7 19.1-50.5 9.2-3.1-1.9-5.1-2-8.3-.1-13.3 7.7-27.1 7.8-40.4 0-13.1-7.7-19.5-19.6-19.7-31.2zm112.2-3.1c-.5-10.1-5-17.7-14.1-21.9-9.1-4.2-17.9-2.9-25.6 3.7-7.8 6.7-9.1 6.8-16.7.1-9.7-8.7-24.3-8-33.3 1.6-8.7 9.4-8.6 23.8.3 33 9.1 9.4 23.7 9.8 33.3 1 7-6.4 8.8-6.4 15.8-.1 7.5 6.8 16.2 8.4 25.5 4.5 9.5-4.2 14.2-11.8 14.8-21.9zM257 301.2v22.5c-.1 10.6-6.5 17.2-17 17.3-15.5.1-31 .1-46.4 0-9.6 0-16.4-6.7-16.5-16.3-.1-15.8-.1-31.6 0-47.4.1-9.6 6.9-16.2 16.5-16.3 15.6-.1 31.3-.1 46.9 0 9.9.1 16.5 6.8 16.5 16.7.1 7.9 0 15.7 0 23.5zm-48.3-8.2v16.2h-15.4v15.5h47.4v-15.8h-15.3v-16.1h15.4v-15.5h-47.4V293h15.3zm24.2 128.4v15.2h-47.6v-15.2h47.6zm80.3 15.3v-15.4h47.4v15.4h-47.4zm79.4-151.9h-15.3v-23.6h15.3v23.6zm16.6-.1v-23.3h15.4v23.3h-15.4zm47.5.2h-15.3v-23.5h15.3v23.5zm16.6-23.7h15.4v23.4h-15.4v-23.4zM200.6 396.9h-15.2v-15.6h15.2v15.6zm32.2-15.5v15.3h-15.6v-15.3h15.6zm32.1 0v15.2h-15.6v-15.2h15.6zm31.9 0v15.4h-15.6v-15.4h15.6zm16.6-.2h15.3v15.6h-15.3v-15.6zm47.4.1v15.4h-15.5v-15.4h15.5z"/></svg>