<svg xmlns="http://www.w3.org/2000/svg" viewBox="0 0 568 521"><path d="M288.2 5.2c139.9 0 255.7 116 255.6 256.1 0 139.9-116.1 255.6-256.3 255.5-139.8 0-255.4-116.1-255.3-256.4.1-139.5 116.1-255.3 256-255.2zm240 255.7c0-133.6-106.3-240-239.9-240.1C154.6 20.8 47.9 127 47.8 260.4c0 134.3 106.1 240.8 240.2 240.8 133.9 0 240.2-106.4 240.2-240.3z"/><path d="M511.8 260.6c-.1 122.3-99.7 222.8-221.3 224.2-124.2 1.3-225.4-100.1-226.3-222.1-.9-123.5 100.1-224.5 222-225.4 123.6-1 225.1 100.3 225.6 223.3zm-47.1-110.7c-17.2-27.1-38.7-48.6-65.6-65.6-1.2 1.9-2.1 3.4-3 4.9-3.1 5.3-6.1 10.7-9.3 16-1.9 3.2-5 5-8.4 3.6-2.4-1-4.9-3.5-5.8-5.9-.7-1.8.6-4.8 1.7-6.9 3.5-6.5 7.3-12.9 11.2-19.6-28.5-14.7-58-22.4-89.7-23.5v21.7c0 6.4-2.9 10.1-7.8 10.1s-7.8-3.8-7.8-10.1V52.8c-32 1.4-61.5 8.9-89.6 23.7 4 7 8 13.4 11.4 20 1.2 2.3 1.9 5.7 1 7.8-.9 2.1-4.1 4.6-6.2 4.5-2.6-.1-6.1-2-7.6-4.2-4.4-6.4-8-13.3-12.2-20.4-27 17.1-48.6 38.6-65.6 65.6 6.8 4 13.1 7.6 19.4 11.3 5.1 3 6.9 7.4 4.7 11.5-2.3 4.3-7 5.1-12.6 2-6.3-3.6-12.6-7.3-19.3-11.2-14.7 28.2-22.3 57.8-23.6 89.7h23.5c3.9 0 7.3 1.8 7.8 5.6.3 2.7-1 6-2.7 8.2-1.1 1.4-4.2 1.7-6.4 1.7-7.3.2-14.5.1-21.7.1-1.6 22.4 11.2 70.9 23.6 89.4 1.5-.9 3.1-1.7 4.7-2.6 5.5-3.1 10.8-6.8 16.6-9.2 2.3-1 6.7-.5 8.4 1.1 1.8 1.7 2.3 5.6 2 8.4-.2 1.8-2.8 3.5-4.7 4.7-6.3 3.9-12.8 7.5-19.5 11.4 17.2 27.1 38.7 48.8 65.7 65.7 4-7 7.6-13.4 11.4-19.6 1.2-1.9 3-4.5 4.7-4.7 2.8-.3 6.3.3 8.5 2 2.9 2.2 2.8 5.8.9 9.1-3.9 6.9-7.9 13.8-12 21 28.4 14.7 57.9 22.4 89.7 23.5v-21.7c0-6.4 2.9-10.1 7.8-10.2 4.9 0 7.8 3.7 7.9 10.1v21.8c32-1.4 61.5-8.9 89.7-23.7-4.2-7.3-8.1-14-12-20.8-1.9-3.2-2.2-6.9.8-9.1 2.2-1.7 5.7-2.4 8.5-2.1 1.7.2 3.6 2.7 4.8 4.6 3.9 6.3 7.5 12.8 11.5 19.7 27.1-17 48.7-38.6 65.7-65.7-6.9-4-13.3-7.5-19.4-11.4-2-1.3-4.6-3.2-4.9-5.2-.4-2.6.4-6 2-8.1 2.2-2.9 5.8-2.9 9.1-1.1 6.9 3.9 13.8 7.9 20.7 11.9 12.2-17.3 26.5-72 23.3-89.4h-11.3c-3.8 0-7.7.1-11.5 0-4.8-.2-8.2-3.3-8.4-7.5-.2-4.4 3.3-7.8 8.4-8.1 2-.1 4 0 6 0h17.6c-1.5-32-9-61.5-23.7-89.6-6.9 3.9-13.3 7.8-19.9 11.3-2 1-4.8 2.3-6.4 1.6-2.4-1-5-3.3-6-5.7-1.5-3.6.4-6.8 3.8-8.7 6.1-3.7 12.9-7.7 20.1-11.9z"/><path d="M295.8 213.7c21.1 5.6 34 18.6 39.4 39.2h32.9c0-4.9.1-9.5 0-14.1-.1-3.8.8-7.6 4.6-8.5 2.8-.7 6.8-.2 9.1 1.5 10.1 7.1 19.8 14.7 29.6 22.2 6 4.6 5.9 9.6-.1 14.3-4.5 3.5-9 6.9-13.5 10.3-4.4 3.2-8.7 2.8-11.5-.8-2.9-3.7-2.1-8.2 2.3-11.7 1.9-1.5 3.8-3 6.3-5-3.6-2.8-6.7-5.1-10.5-8.1-.2 2.1-.4 3.4-.4 4.8-.1 8.8-2.4 11.1-11.4 11.1h-36.8c-11.7 28.7-30.2 42.7-52 39.8-22.9-3.1-40.3-20.5-43.3-43.3-2.9-21.9 11.1-40.3 39.6-51.9v-48.6c-4.8 0-9.6.1-14.4 0-8.1-.1-11.4-5.4-7.8-12.7 7.4-15.1 15-30.1 22.5-45.1 1.7-3.4 4-5.9 8-5.7 3.9.2 6.1 2.7 7.7 6.1 3.3 7.1 6.9 14 10.4 21 2.7 5.5 1.8 10-2.5 12.1-4.3 2.1-8.6.3-11.3-5-1.4-2.6-2.7-5.2-4.6-8.9-4 7.9-7.5 14.8-11.4 22.6h8.1c8.7 0 11.2 2.4 11.2 11.3v47.5c-.2 1.7-.2 3.5-.2 5.6zm24.4 47.4c0-19.2-13.2-32.3-32.3-32.3-19.1 0-32.1 13.2-32 32.5 0 18.9 13.4 31.9 32.8 31.8 18.3 0 31.5-13.4 31.5-32z"/></svg>