<svg xmlns="http://www.w3.org/2000/svg" viewBox="0 0 568 521"><path d="M525.1 180c0 29.3 1.1 58.7-.2 88-3.3 71.6-31.7 132.3-83.2 182-23.6 22.8-50.9 40.2-81.2 52.9-11.5 4.8-23 9.7-34.6 14.3-2.4 1-5.8 1.6-8 .7-26.9-11.1-54.4-21-78.8-37.4-65.8-44-105.8-104.8-118.9-182.9-2.5-14.7-3.3-29.8-3.5-44.8-.4-55.2-.2-110.3-.2-165.5 0-8.8.7-9.8 8.9-12.7C188.6 52.9 251.8 31 315 9.3c3.6-1.2 8.4-1.2 12 0C390.4 31 453.8 53 517.1 74.9c7.3 2.5 8.3 4 8.3 11.6V180h-.3zm-16 3.9h.4c0-29.5-.1-59 .1-88.5 0-4.8-1.4-6.8-6-8.4-59.5-20.3-118.9-40.9-178.4-61.3-2.6-.9-5.9-.9-8.5 0C257.2 46.1 197.6 66.8 138 87.2c-4.1 1.4-5.6 3.2-5.6 7.7.2 52.3-.1 104.6.3 157 .1 14.8.9 29.7 3.4 44.2 11.8 70.3 47.4 125.9 105.5 167.2 23.7 16.8 50.7 27.1 77.3 38.1 1.6.6 3.9.2 5.6-.5 9.4-3.8 18.7-7.8 28.1-11.7 37.6-15.5 69.9-38.5 96.3-69.5C486 375.9 506.6 325.4 509 268c1-28.1.1-56.1.1-84.1z"/><path d="M304.9 296.8c1.3-2.2 2.3-3.7 3.1-5.2l76.2-134.7c6-10.6 16.3-16.1 26.8-14.4 18.7 3 28.4 22.4 19.2 39.1-11.9 21.5-24.2 42.9-36.3 64.4-20 35.5-40.1 71-60.1 106.5-10.7 19-31 21.1-45.2 4.7-19-21.9-37.9-43.9-56.8-65.8-10-11.7-9.1-27.9 2-37.5 11-9.5 27-8.1 37 3.3 11.3 12.8 22.4 25.9 34.1 39.6zm-53.3-33.9c-3 1.1-5.2 1.5-6.9 2.7-5.4 3.7-5.6 10.3-.6 16 18.5 21.4 37.1 42.8 55.6 64.2 7.6 8.7 14.6 8.1 20.3-2 31.5-55.6 62.9-111.2 94.4-166.8 4.5-7.9 3.9-13.7-1.7-17-5.9-3.5-11.1-1.1-15.8 7.2-27.4 48.4-54.7 96.8-82.2 145.1-1.4 2.4-3.8 4.7-6.3 5.8-4.1 1.8-7.2-.9-9.8-4-13.2-15.3-26.3-30.5-39.6-45.7-2-2.2-5-3.7-7.4-5.5zM313 78c-4.6 1-8.5 2-12.4 2.8-5 1-9.3-1.7-10.3-6.3-1-4.3 1.7-8.4 6.6-9.6 7.4-1.7 14.9-3.3 22.4-4.7 5.6-1 9.6 2.5 9.7 8.5.1 23 .1 45.9 0 68.9 0 5.2-3.2 8.4-7.8 8.5-4.9.1-8.1-3.2-8.1-8.7-.1-17.8 0-35.6 0-53.4-.1-1.8-.1-3.7-.1-6zm-158.1 54.6c0-6.2.1-12.3 0-18.5-.1-4.8 2-7.8 6.6-9.3 15.8-5.2 31.5-10.5 47.3-15.8 5.3-1.7 9.8.1 11.2 4.3 1.5 4.6-1 8.6-6.6 10.5-12.7 4.3-25.5 8.7-38.3 12.7-3.4 1.1-4.3 2.6-4.2 6 .2 9.5.1 19 .1 28.5 0 6-3.5 9.9-8.3 9.7-4.8-.2-7.6-3.8-7.7-9.8-.1-6-.1-12.2-.1-18.3zM313 424.3v-22c0-5.8 3.3-9.4 8.2-9.3 4.7.1 7.8 3.6 7.8 9.1.1 14.7.1 29.3 0 44 0 5.9-3.2 9.3-8.2 9.2-4.8-.1-7.7-3.4-7.8-9-.1-7.4 0-14.7 0-22zM154.9 206c0-4.5-.1-9 0-13.5.2-4.6 3.2-7.6 7.4-7.9 4.4-.3 8.3 2.7 8.4 7.4.3 9.3.3 18.7 0 28-.1 4.6-4 7.6-8.4 7.4-4.2-.3-7.2-3.3-7.4-7.9-.1-4.5 0-9 0-13.5z"/><path d="M329 186.7c0 2 .1 4 0 6-.3 4.6-3.8 7.8-8.1 7.7-4.2-.1-7.5-3.2-7.8-7.6-.2-4-.2-8 0-12 .2-4.8 3.4-7.9 7.9-8 4.4 0 7.7 3.1 8 7.8.1 2.1 0 4.1 0 6.1zM257.8 83c0 4.3-3.5 7.9-7.8 8-4.6.1-8.2-3.4-8.1-8.1.1-4.4 3.6-7.9 7.9-7.9 4.2.1 8 3.8 8 8z"/></svg>