<svg version="1.1" id="Layer_1" xmlns="http://www.w3.org/2000/svg" x="0" y="0" viewBox="0 0 1000 145" xml:space="preserve"><style>.st0{fill:#0041ff}</style><path class="st0" d="M49.3 0C89 0 101.8 31.3 95.4 59.7H27.9c3.2 14 18 19.8 33.7 19.8 11 0 20.8-2.2 28.9-5.8v21.8c-9 3.8-20.8 6-35.1 6C25.2 101.4 0 84 0 50.7 0 14.6 27.7 0 49.3 0zm1 21.2c-11.8 0-22.2 7.4-22.6 20.6h42.7c1.1-6.7-2.7-20.6-20.1-20.6z"/><path d="M188 38.3v23.4h-74.3V38.3H188zM258.3 0c27.9 0 52.9 17.2 52.9 50.7s-25 50.7-52.9 50.7c-27.7 0-52.9-17.2-52.9-50.7S230.5 0 258.3 0zm0 24.8c-15.8 0-24.6 11.2-24.6 26s8.8 26 24.6 26c16 0 24.8-11.2 24.8-26-.1-14.9-8.8-26-24.8-26zM365.1 0c13.6 0 25.6 3.4 35.3 8.2V31c-8.2-5.6-22.2-9.8-33.5-9.8-6.2 0-13.4 1.8-13.4 7.6 0 16 54.1 8 54.1 43.1 0 22.6-20.6 29.5-43.5 29.5-14.6 0-28.3-3.2-38.1-9v-23c10.4 6.8 25 10.2 36.5 10.2 10.2 0 16.8-1.8 16.8-7.2 0-15.4-54.1-8.6-54.1-42.9C325.2 7.4 344.9 0 365.1 0zM517 80.2c1.6 0 3.4-.2 5.2-.8v18.2c-4.4 1.6-10 2.8-15.4 2.8-9.8 0-17.2-3.6-21.2-10.8-9.4 7.4-20.4 11.8-34.5 11.8-18 0-33.5-10.4-33.5-29.3 0-24.4 23-31.9 42.1-31.9 7.6 0 16 1 22.8 2.6v-3.4c0-9.6-7.6-16.2-22.6-16.2-13.2 0-25 3.6-33.9 7.2v-24c7.8-2.6 22.4-6.4 37.1-6.4 28.7 0 47.1 11.8 47.1 43.3v30.5c0 5 3.2 6.4 6.8 6.4zm-71.1-10.3c0 7.2 6.6 11.8 15 11.8 7.8 0 15.2-2.2 21.6-7.8v-15c-4.2-1-10.6-2.2-16.4-2.2-10.2 0-20.2 3.4-20.2 13.2zM576.8 0c17.6 0 28.5 8.2 34.7 16.8v-14h24.4V96c0 36.5-26.9 49.3-55.1 49.3-15 0-28.9-3.4-40.5-9V112c10.8 6.4 23.8 10 36.9 10 17 0 31.1-5.8 31.1-24.8v-8.8c-6.2 6.8-16.4 13-31.5 13-30.5 0-46.9-24.6-46.9-50.7S546.3 0 576.8 0zm6.6 23.4c-15.8 0-25.2 12.4-25.2 27.3 0 15 9.4 27.3 25.2 27.3 12.2 0 21.2-7.4 25-15.4V39.3c-3.8-8.4-12.8-15.9-25-15.9zM707 0c27.9 0 52.9 17.2 52.9 50.7s-25 50.7-52.9 50.7c-27.7 0-52.9-17.2-52.9-50.7S679.2 0 707 0zm0 24.8c-15.8 0-24.6 11.2-24.6 26s8.8 26 24.6 26c16 0 24.8-11.2 24.8-26-.1-14.9-8.8-26-24.8-26z"/><path class="st0" d="M791.2 101.2c-9 0-17-5.2-17-16.4s8-16.4 17-16.4S808 73.6 808 84.8s-7.8 16.4-16.8 16.4z"/><path d="M891 .8v26.9c-15.2-2.6-29.7 3.2-35.5 14.6v56.3h-27.7V2.8h24.6v14.4C859.1 6.6 873.1-1 891 .8zm109 2v95.8h-24.6V86.4c-7.4 8.6-18.4 15-31.9 15-25.9 0-38.9-17.2-38.9-39.3V2.8h27.7v55.7c0 12.8 7 19 18.4 19 10 0 17.4-6.4 21.6-12.2V2.8h27.7z"/></svg>