<svg width="926" height="683" fill="none" xmlns="http://www.w3.org/2000/svg"><path d="M642.933 40.113c72-75.2 160-22 195 14 2.333 133.334 5.6 408.2 0 441-5.6 32.8-79.667 9-116-7-31-4.333-105 14.4-153 124-60 137-515 65-561-148-36.8-170.4 63.333-207 118-204 24.333 1.667 76-16 88-100s75-59.666 105-37c34.666 24.334 108.4 58.4 126 0 17.6-58.4 52.734-49.78 68.067-38.113 15 14.5 57.933 30.313 129.933-44.887z" fill="#F1F5FF"/><path d="M197.5 485l84-161.5 12.5 11L204 488l-6.5-3z" fill="url(#paint0_linear)"/><path d="M347.5 547L340 366.5l17.5-7.5-4 188h-6z" fill="url(#paint1_linear)"/><path d="M494 524l-20-91.5h-12c8.167 30.5 25.1 91.9 27.5 93.5 2.4 1.6 4-.667 4.5-2z" fill="url(#paint2_linear)"/><path d="M246.5 150c6.4-5.2 54.333-7.833 77.5-8.5l17.5 106C431.833 277.333 574 343.6 420 370c-192.5 33-190-182.5-187-196.5s5.5-17 13.5-23.5z" fill="url(#paint3_linear)"/><path d="M401.139 591.141L373 315h20.356c4.59 89.89 13.531 270.964 12.573 276.141-.958 5.178-3.592 2.157-4.79 0z" fill="url(#paint4_linear)"/><path fill-rule="evenodd" clip-rule="evenodd" d="M548.141 520.983c-18.392-40.706-31.692-76.151-37.031-94.851-9.142-32.021-16.096-60.197-17.853-70.719-4.192-25.092 32.242-26.553 37.057-14.083 7.289 18.874 20.014 80.887 35.303 174.554l-17.476 5.099zM369.117 523.5c13.5-33.5 63.498-109 86.498-131.5 8.19-1.697 10.037-5.575 17.5-7 22.183-4.235 28.241 9.5 18.002 31.5-46.141 20.5-111 134.047-114.5 138.5-25.5 0-14.827-13.319-7.5-31.5z" fill="url(#paint5_linear)"/><path fill-rule="evenodd" clip-rule="evenodd" d="M475.559 340.578L430.117 311l-25-20.5 10-4c66.5-3 110.558 22.661 112.5 29 .021.068 0 0 2.949 11.965.044.058-2.992-12.024-2.949-11.965 17.5 24.067 31.06 153.706 34.5 162.504l-33.533 5.003c-12.828-47.567-53.868-80.704-52.778-137.673a18.702 18.702 0 01-.247-4.756z" fill="url(#paint6_linear)"/><path fill-rule="evenodd" clip-rule="evenodd" d="M437.617 386c-8.351-1.672-69.365-12.491-75.945-13.645C275.617 346 267.788 303.645 275.117 254l117.3 38.5c12.793 3.675 79.28 31.557 113.777 46.387 22.832 9.815 15.634 45.198 2.705 54.407-.07.564-.303.948-.717 1.12C473.617 447 406.998 536.167 388.617 541l-23-16.5 72-138.5z" fill="url(#paint7_linear)"/><path fill-rule="evenodd" clip-rule="evenodd" d="M357.424 537.04c-4.419 1.196-7.492 2.416-9.221 3.657-2.102 1.511-4.918 4.065-8.448 7.662l47.234 65.753c6.876-2.349 9.217-5.527 7.023-9.531-2.194-4.005-3.984-7.356-5.371-10.051l-8.329-40.349a1.435 1.435 0 00-1.736-1.107l-6.176 1.459c-4.039-2.266-6.823-4.464-8.354-6.594-1.243-1.732-2.261-4.625-3.054-8.679a2.872 2.872 0 00-3.568-2.22zm182.296-25.52c-2.441 3.873-3.877 6.851-4.308 8.935-.524 2.535-.867 6.321-1.028 11.359l79.282 16.398c3.469-6.385 3.04-10.308-1.287-11.769-4.326-1.462-7.912-2.715-10.758-3.759l-33.451-24.05a1.437 1.437 0 00-2.004.328l-.023.033-3.557 5.256c-4.506 1.068-8.043 1.336-10.612.804-2.088-.432-4.796-1.871-8.125-4.317a2.87 2.87 0 00-4.129.782z" fill="#162A74"/><path fill-rule="evenodd" clip-rule="evenodd" d="M374.362 73.327C367.73 65.54 363.241 56 363.991 45.309c2.161-30.803 45.041-24.027 53.382-8.48 8.341 15.547 7.35 54.984-3.43 57.762-4.299 1.109-13.457-1.606-22.778-7.224l5.85 41.391H362.47l11.892-55.431z" fill="url(#paint8_linear)"/><path fill-rule="evenodd" clip-rule="evenodd" d="M348.93 35.056c-1.116-1.106-1.725-2.684-2.251-4.183-.547-1.557-1.078-3.13-1.441-4.75-.725-3.237-.732-6.96 1.577-9.475 1.853-2.015 4.632-2.92 7.197-3.116 1.709-.131 3.464.108 5.102.647 1.625.534 3.026 1.599 4.602 2.26.06-3.49.658-7.14 2.428-10.119 1.703-2.866 4.419-4.475 7.511-4.9 3.174-.437 6.309.306 9.151 1.842.711.385 1.416.789 2.09 1.245.565.382 1.152.842 1.815.998.739.173 1.105-.254 1.585-.793a12.054 12.054 0 011.868-1.682c2.968-2.18 6.862-3.078 10.3-1.77 1.584.602 3.124 1.625 4.199 3.035.958 1.257 1.641 3.25 2.964 4.126.561.371.957-.121 1.468-.485.767-.547 1.499-1.15 2.276-1.682 1.09-.748 2.272-1.307 3.536-1.6 1.852-.428 4.411-.327 4.94 2.098.199.91.047 1.885-.018 2.803-.088 1.26-.18 2.52-.289 3.778a27.078 27.078 0 01-.369 2.817c-.096.5-.397 1.433-.182 1.933.268.627 1.505.27 2.033.292 1.044.043 2.092.227 3.057.672.748.346 1.535.855 1.851 1.712.194.527.143 1.068.051 1.61-.11.65.016.995.098 1.65 1.402-.69 6.26-2.223 6.871.29.204.836-.26 1.781-.613 2.486-.62 1.238-1.434 2.37-2.265 3.448-1.734 2.25-3.804 4.19-6.031 5.85 2.61 1.16 3.291 4.582 1.032 6.62-.998.9-2.339 1.101-3.597 1.044-.461-.021-1.125-.198-1.487-.118-.195.043-.404.208-.674.227-1.776.121-3.78-.306-5.516-.7-3.093-.703-6.021-2.168-8.412-4.4-.614-.572-1.12-.902-1.946-.893-.724.007-1.433.205-2.156.224-1.913.048-3.637-.886-5.413-1.509-.109 2.4-.792 5.042-1.774 7.2-.8 1.76-2.471 2.016-4.113 2.17-5.252.495-10.522-.057-15.781-.05 5.09 1.151 10.35 1.625 15.395 2.98 2.281.611.539 2.148-.436 3.214-1.605 1.754-2.799 3.928-3.627 6.218-2.49-3.246-6.891-5.384-10.791-4.387-4.308 1.102-7.342 6.928-4.587 11.116 1.6 2.432 4.488 3.37 6.891 4.415-1.874 1.95-2.328 4.829-3.456 7.254-.557 1.196-1.338 2.548-2.583 2.965-.46.154-1 .167-1.364.543-.45.465-.557.984-1.132 1.384-2.293 1.594-5.875 1.471-7.908-.61-1.838-1.881-1.36-4.859.175-6.767-2.444-1.018-6.896-2.328-5.925-6.136-5.295-.351-18.152-8.94-11.045-15.215-3.9-2.205-7.484-7.592-4.978-12.341 1.929-3.657 6.416-5.292 10.097-5.485z" fill="url(#paint9_linear)"/><path d="M435.539 152.667c-9.171-20.89-28.344-33.807-34.5-40.5l-15 2.015C395.072 137.146 417.597 198.728 432 216c14.403 17.272 65.354 16.539 95.873 17l2.627-14.5-47.825-13.028c-33.136-8.805-38.575-33.305-47.136-52.805z" fill="url(#paint10_linear)"/><path fill-rule="evenodd" clip-rule="evenodd" d="M401.494 112.935c30.957 65.632 45.604 87.154 35.164 115.011-8.622 23.004-140.43 51.347-154.709 28.798C276.168 247.616 299 205.5 298.5 201c10.596-60.147 12.68-69.024 59.023-96.075l.479-5.872c.196-2.4 2.628-4.21 5.43-4.042l34.258 2.051c2.803.168 4.916 2.25 4.72 4.651l-.916 11.222z" fill="url(#paint11_linear)"/><path d="M739.112 439.5l21-138.5h-13c-4.5 45-13.2 135.7-12 138.5 1.2 2.8 3.167 1.167 4 0z" fill="url(#paint12_linear)"/><path d="M390.5 476.5L373 315h20.356c4.59 89.89 7.669 140.14 5.644 145-2.5 6-5 10-8.5 16.5z" fill="url(#paint13_linear)"/><path d="M151.452 500.33L237.268 258l15.439 7.116c-31.401 77.286-94.887 232.864-97.623 236.888-2.736 4.024-3.561.561-3.632-1.674z" fill="url(#paint14_linear)"/><path d="M193.5 258.5v-6l229.5 77 501.5-48v4.5L423 337.5l-229.5-79z" fill="url(#paint15_linear)"/><path d="M421.5 330.5l-228.5-78L746 217l105 38.5 74.5 26-504 49z" fill="#E7EDFC"/><path d="M562.408 228.722c-3.958-12.768-34.888-7.141-33.085-6.982l-.618 6.982c.214 1.688 7.954 1.284 13.953 2.477 6 1.193 11.309 3.609 13.627 6.16 3.28 2.636 9.289 1.578 6.123-8.637z" fill="#FF9393"/><path opacity=".39" d="M558.609 227.628c1.785 1.085 8.878 3.321 10.231 8.444m-12.148-5.592l9.36 5.848 3.959 4.366m-10.624-4.956l4.484 2.907 3.96 4.366" stroke="#EAEFFC"/><path d="M559 240.5l-85.5 8.5 71.5 12 14-20.5z" fill="#fff"/><path d="M565.5 158.5L545 261l124-8.5c7.333-33 22.2-99.8 23-103 .8-3.2-.333-4-1-4-39.167 2.667-118.2 8-121 8-2.8 0-4.167 3.333-4.5 5z" fill="url(#paint16_linear)"/><path d="M473.5 253.5V249l71 12v4.5l-71-12z" fill="#C9D8FF"/><path d="M669 252.5l-1.5 4.5-122.5 8.5V261l124-8.5z" fill="#97B2F3"/><path d="M542.565 244.718c-6.326-15.32-52.537-13.982-49.815-13.741l-.734 8.299c.37 2.016 12.026 1.753 21.104 3.344 9.078 1.59 17.151 4.618 20.717 7.722 5.018 3.232 13.79 6.632 8.728-5.624z" fill="url(#paint17_linear)"/><path opacity=".39" d="M530.238 238.33c2.29 1.129 11.339 3.538 13.177 8.705m-15.541-5.893l12.01 6.082 5.126 4.47m-13.593-5.219l5.757 3.019 5.126 4.47" stroke="#EAEFFC"/><path d="M315 169c-6-29.2 8-51 23.5-53 30 11.5 23.2 67.801 26 79 2 8 2 11.5 9.5 13.5L501.5 229v13.5c-22.833 2-91.9-1.2-127.5-2-44.5-1-51.5-35-59-71.5z" fill="url(#paint18_linear)"/><path d="M677 74.989l12.157-7.982c2.046-1.342 5.362-1.343 7.408 0h.002l32.366 21.247c1.964 1.289 3.067 3.037 3.067 4.86V245.5" stroke="#C1D1F7" stroke-width="5"/><path d="M750.864 245h-37.728c-1.18 0-2.136 1.343-2.136 3v1c0 1.657.956 3 2.136 3h37.728c1.18 0 2.136-1.343 2.136-3v-1c0-1.657-.956-3-2.136-3z" fill="#A9BEF0"/><path fill-rule="evenodd" clip-rule="evenodd" d="M671.434 71.275c10.914 4.017 16.504 16.121 12.486 27.035l-6.172 16.767-39.522-14.549 6.172-16.767c4.018-10.914 16.122-16.504 27.036-12.486z" fill="url(#paint19_linear)"/><path d="M656.868 111.172c10.914 4.018 20.402 5.532 21.194 3.382.791-2.149-7.415-7.149-18.328-11.166-10.914-4.018-20.403-5.532-21.194-3.383-.792 2.15 7.414 7.149 18.328 11.167zM439.5 260l-57 6 50.5 15 71-8-64.5-13z" fill="#fff"/><path d="M504 276.5l-71.5 8.5-49.5-15.5V266l49.5 15 71.5-8.5v4z" fill="#C1D1F7"/><path fill-rule="evenodd" clip-rule="evenodd" d="M154.272 624.516c-18.23-9.2-35.501-19.455-51.395-30.728L160 530c63 6 97-22 97-22-33.516 81.395-77.216 110.109-102.728 116.516z" fill="#6487FC"/><path fill-rule="evenodd" clip-rule="evenodd" d="M136.135 614.829c-15.325-8.66-29.81-18.117-43.174-28.347l-17.513-16.049c25.732-58.006 87.506-177.482 128.739-191.339l6.156 77.033-14.438 3.543 13.159 8.892c-3.663 34.08-23.345 108.858-72.929 146.267z" fill="url(#paint20_linear)"/><path fill-rule="evenodd" clip-rule="evenodd" d="M62.195 559.469c-24.042-24.418-41.987-52.234-51.16-83.223.315-15.005 2.788-32.144 8.566-51.246l10.5-5-4.5-6c8.5-11.667 26-40.8 28-64 15.667 21.167 44.2 72 33 106-11.2 34-11 79.833-9.5 98.5l-14.906 4.969z" fill="url(#paint21_linear)"/><path opacity=".26" d="M56.074 360c4.472 14.481 10.733 49.054 0 71.5-13.416 28.057-18.576 66.07 0 71.5M46.5 405c.5 5.333 3.7 15.5 12.5 13.5M28.5 449c.167 8.5 3.3 26 14.5 28m28.5-36c-3 4.167-11.8 12.5-23 12.5m19.5-64c.167 2.5-.7 8.8-5.5 14" stroke="#fff"/><path d="M109.384 598.295c-22.136-14.975-41.824-31.847-58.009-50.528-8.749-57.603 26.35-136.76 45.749-170.267h11.5l-5-9 47.5-60.5c45.105 156.702-7.68 256.957-41.74 290.295z" fill="url(#paint22_linear)"/><path d="M85.5 473c1.5 10.5 8.2 32.6 23 37M151 310c-9.667 76.333-38.2 234.4-75 256m30.5-155.5c1.167 10.667 6.1 35 16.5 47m32.5-72.5c-2.667 5.667-10 16.8-18 16m3 104.5c-5 8.667-20.1 25.9-40.5 25.5" opacity=".28" stroke="#fff"/><defs><linearGradient id="paint0_linear" x1="294" y1="377" x2="210" y2="406" gradientUnits="userSpaceOnUse"><stop stop-color="#D5DFFA"/><stop offset="1" stop-color="#A0C1F7"/></linearGradient><linearGradient id="paint1_linear" x1="386" y1="369" x2="327" y2="562" gradientUnits="userSpaceOnUse"><stop stop-color="#D5DFFA"/><stop offset="1" stop-color="#A0C1F7"/></linearGradient><linearGradient id="paint2_linear" x1="478" y1="432.5" x2="478" y2="526.55" gradientUnits="userSpaceOnUse"><stop stop-color="#D1DDFA"/><stop offset="1" stop-color="#AAC7F8"/></linearGradient><linearGradient id="paint3_linear" x1="360.269" y1="141.5" x2="280" y2="373" gradientUnits="userSpaceOnUse"><stop stop-color="#CBDAF3"/><stop offset="1" stop-color="#7799E6"/></linearGradient><linearGradient id="paint4_linear" x1="389.5" y1="315" x2="389.5" y2="594" gradientUnits="userSpaceOnUse"><stop stop-color="#ADC0F7"/><stop offset="1" stop-color="#7A97EB"/></linearGradient><linearGradient id="paint5_linear" x1="463.073" y1="333.672" x2="463.073" y2="555" gradientUnits="userSpaceOnUse"><stop offset=".632" stop-color="#FF9292"/><stop offset="1" stop-color="#FF7070"/></linearGradient><linearGradient id="paint6_linear" x1="483.617" y1="286.257" x2="483.617" y2="483.007" gradientUnits="userSpaceOnUse"><stop offset=".285" stop-color="#2854CC"/><stop offset="1" stop-color="#0F2D81"/></linearGradient><linearGradient id="paint7_linear" x1="596" y1="343.5" x2="397.004" y2="541" gradientUnits="userSpaceOnUse"><stop offset=".268" stop-color="#4A76E7"/><stop offset="1" stop-color="#00207B"/></linearGradient><linearGradient id="paint8_linear" x1="417" y1="24" x2="349" y2="121" gradientUnits="userSpaceOnUse"><stop stop-color="#FF9E9E"/><stop offset="1" stop-color="#FF5858"/></linearGradient><linearGradient id="paint9_linear" x1="439" y1="-21" x2="355" y2="83" gradientUnits="userSpaceOnUse"><stop stop-color="#46568F"/><stop offset="1" stop-color="#061446"/></linearGradient><linearGradient id="paint10_linear" x1="443" y1="71" x2="420" y2="179" gradientUnits="userSpaceOnUse"><stop stop-color="#F7F7FA"/><stop offset="1" stop-color="#F8FAFF"/></linearGradient><linearGradient id="paint11_linear" x1="391" y1="129" x2="275" y2="276" gradientUnits="userSpaceOnUse"><stop stop-color="#FCD506"/><stop offset="1" stop-color="#FF7C02"/></linearGradient><linearGradient id="paint12_linear" x1="696" y1="301" x2="748" y2="450" gradientUnits="userSpaceOnUse"><stop stop-color="#CFD8F9"/><stop offset="1" stop-color="#AABAF4"/></linearGradient><linearGradient id="paint13_linear" x1="386.317" y1="315" x2="386.317" y2="476.5" gradientUnits="userSpaceOnUse"><stop stop-color="#ADC0F7"/><stop offset="1" stop-color="#809AE7"/></linearGradient><linearGradient id="paint14_linear" x1="249.783" y1="263.768" x2="141.514" y2="498.668" gradientUnits="userSpaceOnUse"><stop stop-color="#ADC0F7"/><stop offset="1" stop-color="#7A94DE"/></linearGradient><linearGradient id="paint15_linear" x1="287" y1="260" x2="559" y2="337.5" gradientUnits="userSpaceOnUse"><stop offset=".029" stop-color="#ADC2F5"/><stop offset="1" stop-color="#A3BBF3"/></linearGradient><linearGradient id="paint16_linear" x1="570" y1="128.5" x2="677.5" y2="247" gradientUnits="userSpaceOnUse"><stop stop-color="#DAE5FF"/><stop offset="1" stop-color="#A9BFF3"/></linearGradient><linearGradient id="paint17_linear" x1="525.374" y1="234.356" x2="519.153" y2="259.536" gradientUnits="userSpaceOnUse"><stop stop-color="#FFA8A8"/><stop offset="1" stop-color="#E24242"/></linearGradient><linearGradient id="paint18_linear" x1="393" y1="165" x2="309" y2="264" gradientUnits="userSpaceOnUse"><stop stop-color="#fff"/><stop offset="1" stop-color="#E5F1F8"/></linearGradient><linearGradient id="paint19_linear" x1="642.5" y1="69.5" x2="691" y2="97" gradientUnits="userSpaceOnUse"><stop stop-color="#E3ECFF"/><stop offset="1" stop-color="#94ACE7"/></linearGradient><linearGradient id="paint20_linear" x1="196" y1="411" x2="134" y2="608" gradientUnits="userSpaceOnUse"><stop stop-color="#8DABF8"/><stop offset="1" stop-color="#4E75FE"/></linearGradient><linearGradient id="paint21_linear" x1="116" y1="391" x2="11" y2="513" gradientUnits="userSpaceOnUse"><stop stop-color="#8AA3FD"/><stop offset="1" stop-color="#4169F5"/></linearGradient><linearGradient id="paint22_linear" x1="198" y1="367" x2="57" y2="531" gradientUnits="userSpaceOnUse"><stop offset=".008" stop-color="#8AA3FD"/><stop offset="1" stop-color="#4169F5"/></linearGradient></defs></svg>