<svg width="51" height="51" viewBox="0 0 51 51" fill="none" xmlns="http://www.w3.org/2000/svg">
<path d="M42.2344 1.59375H8.76562C6.86418 1.59589 5.04123 2.35219 3.69671 3.69671C2.35219 5.04123 1.59589 6.86418 1.59375 8.76562V42.2344C1.59589 44.1358 2.35219 45.9588 3.69671 47.3033C5.04123 48.6478 6.86418 49.4041 8.76562 49.4062H42.2344C44.1358 49.4041 45.9588 48.6478 47.3033 47.3033C48.6478 45.9588 49.4041 44.1358 49.4062 42.2344V8.76562C49.4041 6.86418 48.6478 5.04123 47.3033 3.69671C45.9588 2.35219 44.1358 1.59589 42.2344 1.59375ZM47.8125 42.2344C47.8108 43.7133 47.2226 45.1311 46.1769 46.1769C45.1311 47.2226 43.7133 47.8108 42.2344 47.8125H8.76562C7.28672 47.8108 5.86887 47.2226 4.82313 46.1769C3.77738 45.1311 3.18916 43.7133 3.1875 42.2344V8.76562C3.18916 7.28672 3.77738 5.86887 4.82313 4.82313C5.86887 3.77738 7.28672 3.18916 8.76562 3.1875H42.2344C43.7133 3.18916 45.1311 3.77738 46.1769 4.82313C47.2226 5.86887 47.8108 7.28672 47.8125 8.76562V42.2344Z" fill="#689038"/>
<path d="M23.1094 43.0312H27.8906V44.625H23.1094V43.0312Z" fill="#689038"/>
<path d="M15.9375 23.1094C15.9379 22.43 15.7645 21.7618 15.4338 21.1683C15.1032 20.5748 14.6263 20.0756 14.0484 19.7184C13.4706 19.3611 12.8109 19.1575 12.1322 19.127C11.4535 19.0964 10.7783 19.2399 10.1706 19.5439C9.56301 19.8478 9.04321 20.3021 8.66061 20.8635C8.27801 21.4249 8.04532 22.0749 7.98466 22.7516C7.92401 23.4283 8.03739 24.1092 8.31404 24.7297C8.59069 25.3503 9.02142 25.8897 9.5653 26.2969H9.5625V35.8594H9.5653C8.89562 36.3607 8.40073 37.0601 8.15077 37.8585C7.90081 38.6568 7.90847 39.5136 8.17266 40.3073C8.43686 41.101 8.94418 41.7915 9.62271 42.2808C10.3012 42.7701 11.1166 43.0334 11.9531 43.0334C12.7897 43.0334 13.605 42.7701 14.2835 42.2808C14.9621 41.7915 15.4694 41.101 15.7336 40.3073C15.9978 39.5136 16.0054 38.6568 15.7555 37.8585C15.5055 37.0601 15.0106 36.3607 14.341 35.8594H14.3438V26.2969H14.341C14.8365 25.9263 15.2389 25.4452 15.516 24.8919C15.7931 24.3385 15.9375 23.7282 15.9375 23.1094ZM11.9531 41.4375C11.4803 41.4375 11.0181 41.2973 10.625 41.0346C10.2318 40.7719 9.92542 40.3986 9.74448 39.9617C9.56354 39.5249 9.51619 39.0442 9.60844 38.5805C9.70068 38.1168 9.92836 37.6908 10.2627 37.3565C10.597 37.0221 11.023 36.7944 11.4867 36.7022C11.9505 36.61 12.4311 36.6573 12.868 36.8382C13.3048 37.0192 13.6782 37.3256 13.9409 37.7187C14.2035 38.1119 14.3438 38.5741 14.3438 39.0469C14.343 39.6807 14.0909 40.2884 13.6428 40.7365C13.1946 41.1847 12.5869 41.4368 11.9531 41.4375ZM12.75 35.1427C12.2241 35.0358 11.6821 35.0358 11.1563 35.1427V27.0136C11.6821 27.1205 12.2241 27.1205 12.75 27.0136V35.1427ZM11.9531 25.5C11.4803 25.5 11.0181 25.3598 10.625 25.0971C10.2318 24.8344 9.92542 24.4611 9.74448 24.0242C9.56354 23.5874 9.51619 23.1067 9.60844 22.643C9.70068 22.1793 9.92836 21.7533 10.2627 21.419C10.597 21.0846 11.023 20.8569 11.4867 20.7647C11.9505 20.6725 12.4311 20.7198 12.868 20.9007C13.3048 21.0817 13.6782 21.3881 13.9409 21.7812C14.2035 22.1744 14.3438 22.6366 14.3438 23.1094C14.343 23.7432 14.0909 24.3508 13.6428 24.799C13.1946 25.2472 12.5869 25.4993 11.9531 25.5Z" fill="#689038"/>
<path d="M43.0312 23.1094C43.0316 22.43 42.8582 21.7618 42.5276 21.1683C42.197 20.5748 41.72 20.0756 41.1422 19.7184C40.5643 19.3611 39.9047 19.1575 39.226 19.127C38.5473 19.0964 37.872 19.2399 37.2644 19.5439C36.6568 19.8478 36.137 20.3021 35.7544 20.8635C35.3718 21.4249 35.1391 22.0749 35.0784 22.7516C35.0178 23.4283 35.1311 24.1092 35.4078 24.7297C35.6844 25.3503 36.1152 25.8897 36.659 26.2969H36.6562V35.8616C35.9872 36.3633 35.4931 37.0629 35.2437 37.8611C34.9944 38.6593 35.0025 39.5157 35.267 40.3091C35.5314 41.1024 36.0388 41.7924 36.7172 42.2814C37.3956 42.7703 38.2106 43.0335 39.0469 43.0335C39.8831 43.0335 40.6982 42.7703 41.3766 42.2814C42.055 41.7924 42.5623 41.1024 42.8268 40.3091C43.0912 39.5157 43.0994 38.6593 42.85 37.8611C42.6007 37.0629 42.1065 36.3633 41.4375 35.8616V26.2969H41.4347C41.9303 25.9263 42.3326 25.4452 42.6097 24.8919C42.8869 24.3385 43.0312 23.7282 43.0312 23.1094ZM39.0469 41.4375C38.5741 41.4375 38.1119 41.2973 37.7187 41.0346C37.3256 40.7719 37.0192 40.3986 36.8382 39.9617C36.6573 39.5249 36.6099 39.0442 36.7022 38.5805C36.7944 38.1168 37.0221 37.6908 37.3564 37.3565C37.6908 37.0221 38.1168 36.7945 38.5805 36.7022C39.0442 36.61 39.5249 36.6573 39.9617 36.8382C40.3986 37.0192 40.7719 37.3256 41.0346 37.7187C41.2973 38.1119 41.4375 38.5741 41.4375 39.0469C41.4368 39.6807 41.1847 40.2884 40.7365 40.7365C40.2883 41.1847 39.6807 41.4368 39.0469 41.4375ZM39.8437 35.1427C39.3179 35.0358 38.7759 35.0358 38.25 35.1427V27.0136C38.7759 27.1205 39.3179 27.1205 39.8437 27.0136V35.1427ZM39.0469 25.5C38.5741 25.5 38.1119 25.3598 37.7187 25.0971C37.3256 24.8344 37.0192 24.4611 36.8382 24.0242C36.6573 23.5874 36.6099 23.1067 36.7022 22.643C36.7944 22.1793 37.0221 21.7533 37.3564 21.419C37.6908 21.0846 38.1168 20.8569 38.5805 20.7647C39.0442 20.6725 39.5249 20.7198 39.9617 20.9007C40.3986 21.0817 40.7719 21.3881 41.0346 21.7812C41.2973 22.1744 41.4375 22.6366 41.4375 23.1094C41.4368 23.7432 41.1847 24.3509 40.7365 24.799C40.2883 25.2472 39.6807 25.4993 39.0469 25.5Z" fill="#689038"/>
<path d="M26.2969 11.1562H27.8906V12.75H26.2969V11.1562Z" fill="#689038"/>
<path d="M29.4844 11.1562H31.0781V12.75H29.4844V11.1562Z" fill="#689038"/>
<path d="M38.25 15.1406V8.76562C38.2488 7.70927 37.8286 6.69653 37.0817 5.94958C36.3347 5.20263 35.322 4.78246 34.2656 4.78125H16.7344C15.678 4.78246 14.6653 5.20263 13.9183 5.94958C13.1714 6.69653 12.7512 7.70927 12.75 8.76562V15.1406C12.7512 16.197 13.1714 17.2097 13.9183 17.9567C14.6653 18.7036 15.678 19.1238 16.7344 19.125H34.2656C35.322 19.1238 36.3347 18.7036 37.0817 17.9567C37.8286 17.2097 38.2488 16.197 38.25 15.1406ZM36.6562 15.1406C36.6555 15.7744 36.4034 16.3821 35.9553 16.8303C35.5071 17.2784 34.8994 17.5305 34.2656 17.5312H16.7344C16.1006 17.5305 15.4929 17.2784 15.0447 16.8303C14.5966 16.3821 14.3445 15.7744 14.3438 15.1406V8.76562C14.3445 8.13181 14.5966 7.52417 15.0447 7.076C15.4929 6.62783 16.1006 6.37573 16.7344 6.375H34.2656C34.8994 6.37573 35.5071 6.62783 35.9553 7.076C36.4034 7.52417 36.6555 8.13181 36.6562 8.76562V15.1406Z" fill="#689038"/>
<path d="M34.2656 7.96875H16.7344C16.523 7.96876 16.3204 8.05272 16.1709 8.20216C16.0215 8.3516 15.9375 8.55428 15.9375 8.76562V15.1406C15.9375 15.352 16.0215 15.5546 16.1709 15.7041C16.3204 15.8535 16.523 15.9375 16.7344 15.9375H34.2656C34.477 15.9375 34.6796 15.8535 34.8291 15.7041C34.9785 15.5546 35.0625 15.352 35.0625 15.1406V8.76562C35.0625 8.55428 34.9785 8.3516 34.8291 8.20216C34.6796 8.05272 34.477 7.96876 34.2656 7.96875ZM33.4688 14.3438H17.5312V9.5625H33.4688V14.3438Z" fill="#689038"/>
</svg>
