<svg width="51" height="51" viewBox="0 0 51 51" fill="none" xmlns="http://www.w3.org/2000/svg">
<path d="M25.06 18.2439L24.3472 16.8185C23.4675 17.2557 22.4985 17.4833 21.5161 17.4833C20.5337 17.4833 19.5647 17.2557 18.685 16.8185L17.9722 18.2439C19.0734 18.7913 20.2864 19.0761 21.5161 19.0761C22.7458 19.0761 23.9588 18.7913 25.06 18.2439Z" fill="#689038"/>
<path d="M17.5312 29.4844H15.9375V31.0781H17.5312V29.4844Z" fill="#689038"/>
<path d="M19.5695 43.7601C18.9557 45.2944 18.5643 46.9085 18.4072 48.5535L19.9938 48.705C20.1364 47.2112 20.4918 45.7453 21.0492 44.3521L21.4591 43.3272L19.9794 42.7354L19.5695 43.7601Z" fill="#689038"/>
<path d="M47.7079 21.9172L45.9505 18.8416C44.9432 17.0799 43.4829 15.6197 41.7211 14.6123C39.8786 13.5546 38.4283 11.9283 37.5875 9.97718L37.1574 8.9736C36.7541 8.03248 36.2254 7.15019 35.5857 6.35068L34.2394 4.66773C33.8709 4.20479 33.4024 3.83118 32.869 3.57485C32.3357 3.31852 31.7513 3.1861 31.1595 3.1875H25.5004V1.59375H23.9066V3.77273L21.8597 7.35504C21.2388 8.43841 20.3755 9.36328 19.3374 10.0571C19.042 10.2545 18.6946 10.3597 18.3393 10.3594C18.0395 10.3594 17.7444 10.2844 17.4809 10.1414C17.2174 9.99841 16.9938 9.79182 16.8305 9.54044C16.6671 9.28905 16.5691 9.00084 16.5454 8.70196C16.5218 8.40309 16.5731 8.10304 16.6949 7.82906L18.2598 4.30801C18.3047 4.20604 18.3276 4.09578 18.3271 3.98438H18.3285V1.59375H16.7347V3.1875C16.7347 3.1875 13.6671 3.1875 13.0363 3.18643H13.0271C12.1953 3.18545 11.3748 3.37994 10.6319 3.75422L10.5964 3.77202C9.79437 4.16991 9.10742 4.76631 8.60087 5.50454C8.09431 6.24276 7.78498 7.09828 7.70229 7.98976L7.69762 8.03908C7.36131 11.5513 6.4587 14.9858 5.0248 18.2095L4.90758 18.4733C4.2781 19.8888 4.18594 21.4852 4.64835 22.9638L8.0054 33.7064L8.0062 33.7062C8.00773 33.711 8.00836 33.716 8.00997 33.7208L8.80684 36.1114C8.84924 36.2386 8.92304 36.353 9.02141 36.4441C9.11977 36.5351 9.23952 36.5999 9.36957 36.6324L11.2319 37.098L7.47214 48.3772L8.98418 48.8813L12.2623 39.0469H31.3804C32.1687 40.6712 32.3296 42.5294 31.8325 44.2651L31.8014 44.3737C31.3041 46.1063 31.3441 47.949 31.9162 49.6583L33.4283 49.1542C32.958 47.7496 32.9251 46.2353 33.3339 44.8116L33.3649 44.7029C33.9816 42.5519 33.7674 40.2476 32.7648 38.2471L31.807 36.3314L33.099 35.4701C38.4562 31.8981 43.3335 27.6541 47.6116 22.8419C47.7224 22.7172 47.7913 22.5609 47.8086 22.395C47.8259 22.2291 47.7906 22.062 47.7079 21.9172ZM14.8201 4.78125H16.3054L15.2385 7.1818C14.9399 7.85351 14.8676 8.60401 15.0323 9.32038C15.197 10.0368 15.59 10.6803 16.1519 11.1541C16.7139 11.6279 17.4146 11.9064 18.1485 11.9478C18.8824 11.9891 19.6099 11.791 20.2215 11.3832C21.4652 10.5519 22.4996 9.44378 23.2434 8.14579L25.1659 4.78125H27.6209C27.4217 5.05054 27.2577 5.34418 27.1329 5.65505C26.4717 6.52349 25.9955 7.5182 25.7337 8.57779C25.4718 9.63739 25.4299 10.7394 25.6104 11.8158C25.7909 12.8923 26.1901 13.9203 26.7833 14.8365C27.3765 15.7527 28.1511 16.5377 29.0594 17.1429L30.0984 17.8356L28.9453 20.7188H12.4714L11.7337 19.059C12.7664 18.9839 13.7744 18.707 14.7005 18.244L13.9877 16.8185C13.0718 17.2767 12.0583 17.5055 11.0343 17.4854L10.7644 16.878C10.4211 16.0991 10.2595 15.2522 10.2917 14.4016C10.324 13.5509 10.5492 12.7187 10.9504 11.9679L14.8201 4.78125ZM31.8139 17.8383L32.5426 16.138L32.5537 16.1491C33.2362 16.8301 33.7725 17.6433 34.1295 18.5389C34.8399 20.3049 36.1059 21.7916 37.7363 22.7741L38.2478 23.081C36.2067 25.375 34.0246 27.5396 31.7144 29.5624L30.0705 31.0008L29.7402 30.9182L29.3808 29.84C28.9489 28.5462 28.8954 27.1559 29.2269 25.8327L30.2446 21.7614L31.8139 17.8383ZM23.7133 31.102C23.5409 31.145 23.3879 31.2445 23.2785 31.3846C23.1691 31.5247 23.1097 31.6973 23.1097 31.875V34.2656H20.8943L22.2974 27.2501L20.7346 26.9374L19.2689 34.2656H14.5649L15.084 32.9678C15.1419 32.823 15.1561 32.6644 15.1247 32.5116C15.0934 32.3589 15.0179 32.2187 14.9076 32.1084L14.0322 31.2329L14.338 28.7863C14.3493 28.6957 14.345 28.6038 14.3251 28.5146L12.9469 22.3125H28.4641L27.6808 25.4461C27.2756 27.0633 27.3408 28.7626 27.8688 30.344L27.9075 30.4601L27.2874 30.3051C27.1605 30.2734 27.0277 30.2734 26.9008 30.3051L23.7133 31.102ZM11.042 21.4269L11.1929 21.7664L12.7394 28.7256L12.6044 29.8052L12.517 29.7177C12.4898 29.691 12.4607 29.6662 12.4299 29.6436C12.0211 27.169 11.3593 24.743 10.4551 22.4036C10.6594 22.0841 10.8538 21.7572 11.042 21.4269ZM6.36398 19.1205L6.4812 18.8568C7.985 15.4759 8.93154 11.8739 9.28407 8.19044L9.28874 8.14112C9.34666 7.5188 9.56275 6.92161 9.9165 6.40633C10.2702 5.89105 10.7499 5.47479 11.3098 5.1971L11.3453 5.1793C11.8619 4.91913 12.4319 4.78265 13.0103 4.78066L9.54711 11.2123C9.03129 12.1776 8.74172 13.2476 8.70029 14.3413C8.65887 15.435 8.86668 16.5238 9.308 17.5253L10.2221 19.5821C9.83043 20.3722 9.38879 21.1366 8.89984 21.8705C8.82812 21.978 8.78365 22.1014 8.77026 22.23C8.75687 22.3585 8.77497 22.4884 8.82299 22.6084C9.8003 25.0533 10.4989 27.6006 10.9057 30.202L9.13374 31.974L6.16953 22.4885C5.82272 21.3795 5.89184 20.1822 6.36398 19.1205ZM9.67775 33.684L11.9535 31.4082L13.4091 32.8638L12.2689 35.7144L10.1806 35.1924L9.67775 33.684ZM12.7946 37.4499C12.9459 37.4418 13.0918 37.3907 13.215 37.3025C13.3383 37.2143 13.4337 37.0928 13.4902 36.9522L13.9273 35.8594H23.1097C23.1098 35.9773 23.1359 36.0937 23.1864 36.2003C23.2368 36.3068 23.3103 36.4009 23.4014 36.4756C23.4926 36.5504 23.5992 36.604 23.7136 36.6325C23.828 36.6611 23.9473 36.6639 24.0629 36.6408L27.8715 35.879L30.0743 36.4297L30.586 37.4531H12.7936L12.7946 37.4499ZM32.215 34.144L30.9298 35.0008L28.0843 34.2895C27.9698 34.2607 27.8504 34.2579 27.7347 34.2811L24.7035 34.8873V32.4972L27.0941 31.8995L29.7327 32.5592L30.3658 33.8252L31.7912 33.1123L31.2697 32.0693L32.7639 30.7618C35.7351 28.1608 38.4978 25.3307 41.0265 22.2977L41.2531 22.0257L40.0288 21.0055L39.8022 21.2775C39.6396 21.4725 39.476 21.6668 39.3111 21.8602L38.5563 21.4074C37.2242 20.6046 36.1897 19.3899 35.6093 17.9469C35.1723 16.8508 34.516 15.8555 33.6807 15.022L30.8451 12.1865L29.7181 13.3135L31.3288 14.9242L30.7234 16.3368L29.9434 15.8169C28.8466 15.0875 28.0023 14.0368 27.5261 12.8088C27.0498 11.5808 26.9651 10.2355 27.2833 8.9574C27.6071 9.61898 28.1106 10.1761 28.7361 10.5649C29.3617 10.9538 30.0841 11.1587 30.8206 11.1563H31.8754V9.5625H30.8206C30.3507 9.56399 29.8913 9.42394 29.5021 9.1606C29.1129 8.89726 28.8121 8.52282 28.6387 8.08606L28.6067 8.0064C28.4638 7.64972 28.4104 7.26343 28.4514 6.88135C28.4923 6.49928 28.6263 6.13306 28.8416 5.81478C29.0569 5.4965 29.3469 5.23586 29.6863 5.05567C30.0258 4.87549 30.4042 4.78127 30.7884 4.78125H31.1595C31.5122 4.78044 31.8604 4.85936 32.1783 5.01211C32.4961 5.16486 32.7753 5.38748 32.995 5.66334L34.3412 7.34629C34.8911 8.03369 35.3457 8.79226 35.6924 9.60141L36.1226 10.605C37.1005 12.8744 38.7873 14.7658 40.9304 15.9961C42.4452 16.8621 43.7007 18.1176 44.5667 19.6324L46.039 22.2089C41.9431 26.7446 37.2996 30.7537 32.215 34.144Z" fill="#689038"/>
</svg>
