<svg width="51" height="51" viewBox="0 0 51 51" fill="none" xmlns="http://www.w3.org/2000/svg">
<path d="M8.67137 15.8021C9.82712 17.9617 10.4467 20.3676 10.478 22.8169C10.5092 25.2661 9.95115 27.687 8.85084 29.8754L10.2743 30.5923C11.4815 28.1909 12.0976 25.5358 12.0714 22.8482C12.0451 20.1605 11.3772 17.518 10.1232 15.1406H40.8768C39.6228 17.518 38.9549 20.1605 38.9286 22.8482C38.9024 25.5358 39.5185 28.1909 40.7257 30.5923L42.1492 29.8754C41.0489 27.687 40.4908 25.2661 40.522 22.8168C40.5533 20.3676 41.1729 17.9617 42.3286 15.8021L47.054 6.98149C47.7986 5.5912 48.375 4.11719 48.771 2.59061L47.2282 2.19061C46.864 3.59461 46.334 4.95024 45.6492 6.22888L44.2902 8.76561H6.70985L5.35084 6.22879C4.66604 4.95019 4.13595 3.59459 3.77178 2.19062L2.229 2.59061C2.62502 4.11717 3.20141 5.59115 3.946 6.9814L8.67137 15.8021ZM43.4364 10.3594L41.7288 13.5469H9.2712L7.56363 10.3594H43.4364Z" fill="#689038"/>
<path d="M3.83495 43.0312H10.3594V41.4375H4.26593C4.73242 39.9131 5.34707 38.438 6.10107 37.0335L4.6972 36.279C2.66336 40.0709 1.59733 44.3063 1.59375 48.6092V49.4062H3.1875V48.6092C3.1875 48.3435 3.19198 48.0779 3.20093 47.8125H7.96875V46.2187H3.3063C3.41234 45.1458 3.58894 44.081 3.83495 43.0312Z" fill="#689038"/>
<path d="M46.3028 36.279L44.8989 37.0335C45.6529 38.438 46.2675 39.9131 46.7341 41.4375H40.6406V43.0312H47.165C47.411 44.081 47.5876 45.1458 47.6937 46.2187H43.0312V47.8125H47.7991C47.8078 48.0779 47.8123 48.3435 47.8125 48.6093V49.4062H49.4062V48.6093C49.4027 44.3064 48.3366 40.0709 46.3028 36.279Z" fill="#689038"/>
<path d="M27.0938 41.4374H23.9062V43.0312H27.0938V41.4374Z" fill="#689038"/>
<path d="M34.2656 46.2188H16.7344V47.8125H34.2656V46.2188Z" fill="#689038"/>
<path d="M16.7039 23.6873L15.1714 24.1252C15.9001 26.6776 16.3774 29.2952 16.5966 31.9405L18.1849 31.8094C17.9571 29.0602 17.4611 26.3399 16.7039 23.6873Z" fill="#689038"/>
<path d="M26.2969 31.8749H24.7031V33.4687H26.2969V31.8749Z" fill="#689038"/>
<path d="M35.8289 24.1252L34.2964 23.6873C33.5392 26.3399 33.0432 29.0602 32.8154 31.8094L34.4037 31.9405C34.6229 29.2952 35.1002 26.6776 35.8289 24.1252Z" fill="#689038"/>
<path d="M23.906 22.3125V20.7187H22.9744C21.6955 20.7151 20.4392 20.3822 19.3263 19.7521C18.2134 19.122 17.2816 18.2159 16.6205 17.1212L15.2539 17.9412C16.0572 19.2714 17.1895 20.3723 18.5417 21.1379C19.8939 21.9036 21.4205 22.3081 22.9744 22.3125H23.906Z" fill="#689038"/>
<path d="M35.7458 17.9412L34.3792 17.1212C33.7181 18.2159 32.7863 19.122 31.6734 19.7521C30.5606 20.3822 29.3042 20.7151 28.0254 20.7187H27.0938V22.3125H28.0254C29.5793 22.3081 31.1058 21.9036 32.458 21.1379C33.8103 20.3723 34.9425 19.2714 35.7458 17.9412Z" fill="#689038"/>
<path d="M5.96381 31.6209C6.35332 31.9413 6.81028 32.1694 7.30046 32.2882L20.5294 35.52L20.9076 33.9717L7.67867 30.74C7.4551 30.6858 7.24452 30.5878 7.05916 30.4516C6.87379 30.3154 6.71735 30.1437 6.59891 29.9465C6.92068 29.6492 7.34272 29.4842 7.78081 29.4843H7.9685V27.8906H7.78081C7.32559 27.8908 6.87523 27.9842 6.45747 28.165L6.51054 27.7935C6.57159 27.3789 6.77926 26.9999 7.09585 26.7253C7.41244 26.4507 7.81697 26.2988 8.23605 26.2969H8.76537V24.7032H8.236C7.43375 24.7066 6.65931 24.9976 6.05325 25.5232C5.44719 26.0489 5.04967 26.7744 4.93284 27.5681L4.32278 31.8385C4.20894 32.6666 4.40824 33.5074 4.88168 34.1964C5.35512 34.8853 6.06861 35.3728 6.88252 35.5633L16.5565 37.7746L16.9117 36.2209L7.23762 34.0097C6.81245 33.9101 6.43973 33.6555 6.19241 33.2956C5.9451 32.9357 5.841 32.4965 5.90048 32.0639L5.96381 31.6209Z" fill="#689038"/>
<path d="M42.0419 45.6987C39.7678 42.8525 37.0033 40.4357 33.879 38.562L33.0585 39.9283C35.7919 41.5675 38.2362 43.6463 40.293 46.081L38.4201 47.4856C35.9501 44.1889 32.7354 41.5229 29.0386 39.7055L28.3364 41.1362C32.0418 42.9577 35.2272 45.6854 37.5972 49.0663C37.6585 49.1538 37.7367 49.2282 37.8273 49.2848C37.9178 49.3415 38.0189 49.3794 38.1244 49.3962C38.2299 49.4131 38.3377 49.4085 38.4414 49.3829C38.5451 49.3572 38.6426 49.311 38.7281 49.2469L41.9156 46.8562C42.001 46.7922 42.0727 46.7116 42.1264 46.6192C42.1801 46.5269 42.2146 46.4247 42.228 46.3188C42.2414 46.2128 42.2334 46.1052 42.2045 46.0024C42.1755 45.8996 42.1261 45.8037 42.0594 45.7204L42.0419 45.6987Z" fill="#689038"/>
<path d="M44.1172 35.5633C44.9311 35.3728 45.6446 34.8853 46.118 34.1964C46.5915 33.5074 46.7908 32.6666 46.677 31.8385L46.0669 27.5682C45.9501 26.7745 45.5526 26.0489 44.9465 25.5233C44.3404 24.9976 43.566 24.7066 42.7637 24.7032H42.2344V26.2969H42.7636C43.1827 26.2987 43.5873 26.4507 43.9039 26.7254C44.2205 27 44.4282 27.379 44.4892 27.7936L44.5423 28.165C44.1245 27.9842 43.6741 27.8908 43.2189 27.8906H43.0312V29.4843H43.2189C43.657 29.4842 44.0791 29.6492 44.4008 29.9465C44.2824 30.1437 44.1259 30.3154 43.9406 30.4516C43.7552 30.5878 43.5446 30.6858 43.3211 30.74L25.6341 35.0608C19.0584 36.6794 13.1982 40.4175 8.95845 45.6981L8.9406 45.7204C8.87383 45.8037 8.82449 45.8996 8.79552 46.0024C8.76654 46.1052 8.75852 46.2128 8.77193 46.3188C8.78534 46.4247 8.81991 46.5269 8.87359 46.6192C8.92726 46.7116 8.99894 46.7922 9.08437 46.8562L12.2719 49.2469C12.3573 49.311 12.4548 49.3572 12.5586 49.3829C12.6623 49.4086 12.7701 49.4131 12.8756 49.3963C12.9811 49.3794 13.0821 49.3416 13.1727 49.2849C13.2633 49.2282 13.3415 49.1539 13.4028 49.0663C16.8767 44.0963 22.076 40.597 27.9882 39.2499L44.1172 35.5633ZM12.5797 47.4855L10.7072 46.0812C14.6863 41.3934 20.0417 38.079 26.0123 36.609L43.6993 32.2882C44.1895 32.1694 44.6464 31.9413 45.0359 31.6209L45.0993 32.064C45.1587 32.4966 45.0546 32.9358 44.8073 33.2956C44.56 33.6555 44.1872 33.9101 43.7621 34.0097L27.6331 37.6963C21.6119 39.068 16.2757 42.5382 12.5797 47.4855Z" fill="#689038"/>
</svg>
