<svg width="51" height="51" viewBox="0 0 51 51" fill="none" xmlns="http://www.w3.org/2000/svg">
<path d="M18.5615 30.5146L16.1709 32.9052L17.2978 34.0323L19.125 32.2051L20.9522 34.0323L22.0791 32.9052L19.6885 30.5146C19.539 30.3652 19.3363 30.2813 19.125 30.2813C18.9137 30.2813 18.711 30.3652 18.5615 30.5146Z" fill="#689038"/>
<path d="M28.4541 32.9052L26.0635 30.5146C25.914 30.3652 25.7113 30.2813 25.5 30.2813C25.2887 30.2813 25.086 30.3652 24.9365 30.5146L22.5459 32.9052L23.6728 34.0323L25.5 32.2051L27.3271 34.0323L28.4541 32.9052Z" fill="#689038"/>
<path d="M25.2666 28.124L22.876 25.7334C22.7265 25.584 22.5238 25.5001 22.3125 25.5001C22.1012 25.5001 21.8985 25.584 21.749 25.7334L19.3584 28.124L20.4853 29.251L22.3125 27.4238L24.1396 29.251L25.2666 28.124Z" fill="#689038"/>
<path d="M25.7334 28.124L26.8603 29.251L28.6875 27.4238L30.5146 29.251L31.6416 28.124L29.251 25.7334C29.1015 25.584 28.8988 25.5001 28.6875 25.5001C28.4762 25.5001 28.2735 25.584 28.124 25.7334L25.7334 28.124Z" fill="#689038"/>
<path d="M20.9522 24.4698L22.0791 23.3427L19.6885 20.9521C19.539 20.8027 19.3363 20.7188 19.125 20.7188C18.9137 20.7188 18.711 20.8027 18.5615 20.9521L16.1709 23.3427L17.2978 24.4698L19.125 22.6426L20.9522 24.4698Z" fill="#689038"/>
<path d="M25.5 22.6426L27.3271 24.4698L28.4541 23.3427L26.0635 20.9521C25.914 20.8027 25.7113 20.7188 25.5 20.7188C25.2887 20.7188 25.086 20.8027 24.9365 20.9521L22.5459 23.3427L23.6728 24.4698L25.5 22.6426Z" fill="#689038"/>
<path d="M31.875 22.6426L33.7021 24.4698L34.8291 23.3427L32.4385 20.9521C32.289 20.8027 32.0863 20.7188 31.875 20.7188C31.6637 20.7188 31.461 20.8027 31.3115 20.9521L28.9209 23.3427L30.0478 24.4698L31.875 22.6426Z" fill="#689038"/>
<path d="M31.875 41.4375H30.2812V43.0312H31.875V41.4375Z" fill="#689038"/>
<path d="M30.2812 43.8281H28.6875V45.4219H30.2812V43.8281Z" fill="#689038"/>
<path d="M23.068 39.958C22.6723 39.2685 22.0375 38.7482 21.2837 38.4955C20.687 37.9708 19.9197 37.6815 19.1251 37.6815C18.3305 37.6815 17.5632 37.9708 16.9665 38.4955C16.2138 38.75 15.5795 39.2698 15.1822 39.9579C14.7849 40.6461 14.6518 41.4553 14.8078 42.2344C14.6518 43.0135 14.7849 43.8227 15.1822 44.5109C15.5795 45.199 16.2138 45.7188 16.9665 45.9733C17.5632 46.498 18.3305 46.7873 19.1251 46.7873C19.9197 46.7873 20.687 46.498 21.2837 45.9733C22.0364 45.7188 22.6707 45.199 23.068 44.5109C23.4653 43.8227 23.5984 43.0135 23.4424 42.2344C23.6005 41.4553 23.4673 40.6454 23.068 39.958ZM21.9043 41.4375L20.5054 41.4375L21.2049 40.226C21.4022 40.3652 21.567 40.5457 21.6878 40.7548C21.8086 40.964 21.8824 41.1969 21.9043 41.4375ZM19.8256 39.4274L19.1251 40.6408L18.4246 39.4274C18.6449 39.3288 18.8837 39.2779 19.1251 39.2779C19.3665 39.2779 19.6052 39.3288 19.8256 39.4274L19.8256 39.4274ZM17.0453 40.226L17.7448 41.4375L16.3459 41.4375C16.3678 41.1969 16.4416 40.964 16.5624 40.7548C16.6832 40.5457 16.8479 40.3652 17.0453 40.226ZM16.5624 43.7139C16.4411 43.5048 16.3666 43.2719 16.344 43.0312L17.745 43.0313L17.0445 44.2445C16.8473 44.1046 16.6828 43.9236 16.5624 43.714L16.5624 43.7139ZM18.4257 45.0397L19.1251 43.8283L19.8245 45.0398C19.6053 45.1411 19.3666 45.1936 19.1251 45.1936C18.8836 45.1936 18.6449 45.1411 18.4257 45.0398L18.4257 45.0397ZM21.6878 43.7139C21.5673 43.9236 21.4029 44.1046 21.2057 44.2445L20.5052 43.0313L21.9062 43.0312C21.8836 43.2719 21.8091 43.5048 21.6878 43.714L21.6878 43.7139Z" fill="#689038"/>
<path d="M7.96875 42.2344H6.375V43.8281H7.96875V42.2344Z" fill="#689038"/>
<path d="M9.5625 44.625H7.96875V46.2188H9.5625V44.625Z" fill="#689038"/>
<path d="M43.9067 30.6041L43.9085 30.6004C43.8691 30.5811 43.829 30.5644 43.7891 30.5468C42.3074 29.8433 40.6871 29.4803 39.0469 29.4844C38.7798 29.4844 38.5142 29.4936 38.25 29.5122V26.2969C38.2476 24.4165 37.6417 22.5866 36.5215 21.0764C35.4012 19.5662 33.8258 18.4555 32.027 17.9078L33.4381 12.969C33.4801 12.8226 33.4792 12.6673 33.4356 12.5214C33.3919 12.3756 33.3073 12.2453 33.1918 12.1461C33.0764 12.0469 32.9348 11.9829 32.7841 11.9617C32.6333 11.9406 32.4796 11.9631 32.3413 12.0267L33.4381 8.18771C33.4801 8.04137 33.4792 7.88605 33.4356 7.74019C33.3919 7.59434 33.3073 7.46407 33.1918 7.36486C33.0764 7.26564 32.9348 7.20165 32.7841 7.18048C32.6333 7.15931 32.4796 7.18184 32.3413 7.24541L33.4381 3.40646C33.4806 3.25775 33.4789 3.09989 33.4332 2.95213C33.3875 2.80437 33.2998 2.67309 33.1808 2.57432C33.0618 2.47554 32.9166 2.41354 32.763 2.39586C32.6093 2.37818 32.4538 2.4056 32.3155 2.47477L28.1291 4.56793L26.1375 1.91252C26.0633 1.81355 25.967 1.73321 25.8564 1.67788C25.7457 1.62256 25.6237 1.59375 25.5 1.59375C25.3763 1.59375 25.2543 1.62256 25.1436 1.67788C25.033 1.73321 24.9367 1.81355 24.8625 1.91252L22.8709 4.56793L18.6845 2.47477C18.5462 2.4056 18.3907 2.37818 18.237 2.39586C18.0834 2.41354 17.9382 2.47555 17.8192 2.57432C17.7002 2.6731 17.6125 2.80437 17.5668 2.95213C17.5211 3.09989 17.5194 3.25775 17.5619 3.40647L18.6587 7.24541C18.5204 7.18184 18.3667 7.15931 18.2159 7.18048C18.0652 7.20166 17.9236 7.26565 17.8082 7.36486C17.6927 7.46407 17.6081 7.59434 17.5644 7.7402C17.5208 7.88605 17.5199 8.04137 17.5619 8.18772L18.6587 12.0267C18.5204 11.9631 18.3667 11.9406 18.2159 11.9617C18.0652 11.9829 17.9236 12.0469 17.8082 12.1461C17.6927 12.2453 17.6081 12.3756 17.5644 12.5214C17.5208 12.6673 17.5199 12.8226 17.5619 12.969L18.973 17.9078C17.1742 18.4555 15.5988 19.5662 14.4785 21.0764C13.3583 22.5866 12.7524 24.4165 12.75 26.2969V38.9551C12.4226 39.5888 12.1923 40.2682 12.0669 40.9704C11.6657 40.3775 11.1252 39.892 10.4926 39.5567C9.86014 39.2213 9.155 39.0463 8.43907 39.0469H7.49843C6.77638 39.0461 6.06536 39.224 5.42876 39.5647C4.79215 39.9054 4.24973 40.3984 3.84984 40.9996C3.58024 41.4036 3.21005 41.7304 2.77574 41.9478L2.03426 42.3185C1.90188 42.3847 1.79056 42.4864 1.71275 42.6123C1.63494 42.7382 1.59374 42.8833 1.59375 43.0312V45.4219C1.59374 45.5699 1.63494 45.7149 1.71275 45.8408C1.79056 45.9667 1.90188 46.0684 2.03426 46.1346L2.77569 46.5053C3.21006 46.7227 3.58029 47.0496 3.84989 47.4537C4.24978 48.0548 4.7922 48.5477 5.4288 48.8884C6.0654 49.2291 6.7764 49.407 7.49843 49.4062H8.43907C9.16112 49.407 9.87214 49.2291 10.5087 48.8884C11.1454 48.5477 11.6878 48.0548 12.0877 47.4536C12.3573 47.0496 12.7274 46.7227 13.1618 46.5053L13.3099 46.4313C13.8975 47.2466 14.6502 47.9291 15.5188 48.4345C16.3875 48.9399 17.3528 49.2569 18.352 49.3648C19.3512 49.4728 20.3619 49.3693 21.3185 49.0611C22.2751 48.7529 23.1561 48.2468 23.9043 47.5759C25.2734 48.8039 27.0624 49.4581 28.9006 49.403C30.7389 49.348 32.4855 48.5878 33.7786 47.28C34.7253 47.7983 35.7448 48.1706 36.8027 48.3843C36.9373 48.6881 37.1571 48.9464 37.4356 49.1278C37.7141 49.3092 38.0392 49.4059 38.3715 49.4062H39.7223C40.0547 49.4059 40.3798 49.3092 40.6584 49.1277C40.9369 48.9462 41.1567 48.6878 41.2913 48.3839C43.4387 47.9559 45.4001 46.8713 46.9042 45.28C48.5177 43.5485 49.4062 41.3348 49.4062 39.0469C49.4062 35.3944 47.1759 32.2141 43.9067 30.6041ZM40.3079 31.1609C40.0514 31.409 39.8386 31.6986 39.6784 32.0175L39.0469 33.2806L38.4153 32.0175C38.2551 31.6986 38.0424 31.409 37.7859 31.1609C38.6229 31.0505 39.4708 31.0505 40.3079 31.1609ZM39.0469 36.3381L40.4174 38.0512C40.645 38.3331 40.7691 38.6845 40.7691 39.0468C40.7691 39.4092 40.645 39.7606 40.4174 40.0425L39.0469 41.7557L37.6764 40.0426C37.4488 39.7606 37.3246 39.4093 37.3246 39.0469C37.3246 38.6846 37.4488 38.3332 37.6764 38.0513L39.0469 36.3381ZM31.875 34.2656V33.4688C31.8752 33.2575 31.9593 33.0549 32.1087 32.9055C32.2581 32.7562 32.4606 32.6721 32.6719 32.6719H33.4688V33.4688C33.4685 33.68 33.3845 33.8826 33.2351 34.032C33.0857 34.1814 32.8831 34.2654 32.6719 34.2656H31.875ZM20.5918 12.9909L19.592 9.49159L22.753 11.0721C22.9199 11.1556 23.1108 11.1779 23.2925 11.135C23.4741 11.0921 23.6349 10.9868 23.7469 10.8375L25.5 8.49997L27.2531 10.8375C27.3651 10.9868 27.5259 11.0921 27.7075 11.135C27.8892 11.1778 28.0801 11.1556 28.247 11.0721L31.408 9.49159L30.4082 12.9909L28.1291 14.1304L26.1375 11.475C26.0633 11.376 25.967 11.2957 25.8564 11.2404C25.7457 11.1851 25.6237 11.1562 25.5 11.1562C25.3763 11.1562 25.2543 11.1851 25.1436 11.2404C25.033 11.2957 24.9367 11.376 24.8625 11.475L22.8709 14.1304L20.5918 12.9909ZM22.753 6.29086C22.9199 6.37436 23.1108 6.39662 23.2925 6.35374C23.4741 6.31086 23.6349 6.20557 23.7469 6.05623L25.5 3.71872L27.2531 6.05623C27.3651 6.20555 27.5259 6.31083 27.7075 6.35371C27.8892 6.39659 28.0801 6.37434 28.247 6.29086L31.408 4.71034L30.4082 8.20965L28.1291 9.34918L26.1375 6.69377C26.0633 6.5948 25.967 6.51446 25.8564 6.45913C25.7457 6.40381 25.6237 6.375 25.5 6.375C25.3763 6.375 25.2543 6.40381 25.1436 6.45913C25.033 6.51446 24.9367 6.5948 24.8625 6.69377L22.8709 9.34918L20.5918 8.20965L19.592 4.71034L22.753 6.29086ZM19.592 14.2728L22.753 15.8534C22.9199 15.9369 23.1108 15.9591 23.2925 15.9162C23.4741 15.8734 23.6349 15.7681 23.7469 15.6187L25.5 13.2812L27.2531 15.6187C27.3651 15.7681 27.5259 15.8734 27.7075 15.9162C27.8892 15.9591 28.0801 15.9369 28.247 15.8534L31.408 14.2728L30.4614 17.586C30.137 17.5497 29.8108 17.5314 29.4844 17.5312H21.5156C21.1892 17.5314 20.863 17.5497 20.5386 17.586L19.592 14.2728ZM12.75 44.9294L12.449 45.0799C11.7666 45.4214 11.185 45.9349 10.7616 46.5696C10.507 46.9523 10.1617 47.266 9.75648 47.4829C9.35126 47.6997 8.89868 47.813 8.43907 47.8125H7.49843C7.03884 47.813 6.58627 47.6998 6.18106 47.4829C5.77584 47.2661 5.43056 46.9524 5.17599 46.5697C4.75251 45.9349 4.17088 45.4214 3.48847 45.0799L3.1875 44.9294V43.5238L3.48852 43.3733C4.17088 43.0317 4.75246 42.5183 5.17594 41.8835C5.43051 41.5008 5.77579 41.1871 6.18102 40.9702C6.58624 40.7534 7.03882 40.6401 7.49843 40.6406H8.43907C8.89866 40.6401 9.35123 40.7534 9.75644 40.9702C10.1617 41.1871 10.5069 41.5008 10.7615 41.8834C11.185 42.5182 11.7666 43.0317 12.449 43.3733L12.75 43.5238V44.9294ZM19.125 47.8125C18.1627 47.8119 17.2168 47.5627 16.3792 47.089C15.5415 46.6154 14.8404 45.9334 14.3438 45.1091V43.0312C14.3438 42.8833 14.3026 42.7382 14.2247 42.6123C14.1469 42.4864 14.0356 42.3847 13.9032 42.3185L13.5492 42.1415C13.5677 41.0425 13.9104 39.9735 14.5345 39.0687C15.1585 38.1639 16.036 37.4636 17.0567 37.0558C18.0774 36.6481 19.1958 36.551 20.2715 36.7768C21.3472 37.0025 22.3322 37.5411 23.1028 38.3249C23.8734 39.1087 24.3953 40.1026 24.6028 41.182C24.8103 42.2614 24.6943 43.378 24.2693 44.3917C23.8444 45.4053 23.1293 46.2708 22.2141 46.8794C21.2988 47.488 20.2241 47.8127 19.125 47.8125ZM45.7382 44.1936C44.3508 45.6552 42.5133 46.6093 40.5196 46.9034C40.3314 46.9323 40.1598 47.0276 40.0359 47.1721C39.9119 47.3166 39.8437 47.5006 39.8438 47.691C39.8437 47.7232 39.8309 47.7541 39.8081 47.7769C39.7853 47.7997 39.7545 47.8125 39.7223 47.8125H38.3715C38.3393 47.8125 38.3084 47.7997 38.2856 47.7769C38.2628 47.7541 38.25 47.7232 38.25 47.691C38.25 47.5006 38.1819 47.3166 38.0579 47.1721C37.9339 47.0276 37.7623 46.9323 37.5742 46.9034C36.6016 46.7563 35.6589 46.4546 34.7817 46.0096C35.2883 45.1935 35.6256 44.2838 35.7737 43.3347C35.9218 42.3856 35.8776 41.4165 35.6436 40.4848C35.4097 39.5531 34.9909 38.678 34.412 37.9114C33.8331 37.1449 33.1061 36.5025 32.274 36.0225L31.476 37.4021C32.1528 37.7923 32.7402 38.3205 33.1999 38.9522C33.6596 39.584 33.9815 40.3053 34.1447 41.0694C34.3079 41.8335 34.3087 42.6233 34.1472 43.3878C33.9856 44.1522 33.6653 44.8742 33.2069 45.5069C32.7485 46.1397 32.1623 46.6691 31.4863 47.0608C30.8102 47.4525 30.0594 47.6978 29.2825 47.7809C28.5056 47.8639 27.7199 47.7829 26.9764 47.5429C26.2328 47.3029 25.548 46.9094 24.9662 46.3879C25.8317 45.1757 26.297 43.7234 26.2969 42.2339C26.2968 40.7445 25.8314 39.2922 24.9657 38.0802C25.4463 37.6492 25.9978 37.3046 26.5958 37.0615L25.9979 35.5841C25.2297 35.8964 24.5212 36.3389 23.9034 36.8921C22.5901 35.7136 20.8877 35.0621 19.1231 35.0625C17.3586 35.063 15.6565 35.7154 14.3438 36.8945V29.0176L15.9375 27.4238L17.7647 29.251L18.8916 28.124L16.501 25.7334C16.3515 25.584 16.1488 25.5001 15.9375 25.5001C15.7262 25.5001 15.5235 25.584 15.374 25.7334L14.3438 26.7636V26.2969C14.3459 24.3954 15.1022 22.5725 16.4467 21.228C17.7912 19.8834 19.6142 19.1271 21.5156 19.125H29.4844C31.3858 19.1271 33.2088 19.8834 34.5533 21.228C35.8978 22.5725 36.6541 24.3954 36.6562 26.2969V26.7636L35.626 25.7334C35.4765 25.584 35.2738 25.5 35.0625 25.5C34.8512 25.5 34.6485 25.584 34.499 25.7334L32.1084 28.124L33.2353 29.251L35.0625 27.4238L36.6562 29.0176V29.7402C35.808 29.9244 34.985 30.2103 34.2051 30.5915C34.1985 30.5947 34.1918 30.5972 34.1852 30.6004L34.1854 30.6008C33.8902 30.7461 33.6019 30.9052 33.3208 31.0781H32.6719C32.0381 31.0788 31.4304 31.3309 30.9822 31.7791C30.5341 32.2273 30.282 32.8349 30.2812 33.4688V34.7324L29.4844 35.5293V34.2656H27.8906V38.3128C27.7541 38.2718 27.6125 38.2506 27.47 38.25H26.2969V39.8438H27.4001C27.5287 40.0721 27.7157 40.2621 27.9419 40.3943C28.1681 40.5266 28.4255 40.5963 28.6875 40.5963C28.9495 40.5963 29.2069 40.5266 29.4331 40.3943C29.6593 40.2621 29.8463 40.0721 29.9749 39.8438H31.0781V38.25H29.905C29.7625 38.2506 29.6209 38.2718 29.4844 38.3128V37.7832L31.4082 35.8594H32.6719C33.3057 35.8587 33.9133 35.6066 34.3615 35.1584C34.8097 34.7102 35.0618 34.1026 35.0625 33.4688V31.9582C35.4226 31.8286 35.8177 31.8357 36.1729 31.978C36.5282 32.1203 36.8188 32.388 36.9899 32.7303L38.1061 34.9628L36.4318 37.0557C35.9767 37.6195 35.7284 38.3223 35.7284 39.0469C35.7284 39.7716 35.9767 40.4743 36.4318 41.0382L38.4246 43.5291C38.4993 43.6224 38.594 43.6977 38.7017 43.7495C38.8094 43.8012 38.9274 43.8281 39.0469 43.8281C39.1664 43.8281 39.2844 43.8012 39.3921 43.7495C39.4998 43.6977 39.5945 43.6224 39.6691 43.5291L41.6619 41.0381C42.1171 40.4742 42.3653 39.7715 42.3653 39.0468C42.3653 38.3222 42.1171 37.6194 41.6619 37.0556L39.9877 34.9628L41.1039 32.7303C41.2818 32.3744 41.5888 32.0996 41.9622 31.962C42.3356 31.8243 42.7474 31.8342 43.1138 31.9895C45.9047 33.3241 47.8125 35.9865 47.8125 39.0469C47.7992 40.9635 47.0577 42.8034 45.7382 44.1936Z" fill="#689038"/>
</svg>
