<svg width="20" height="19" viewBox="0 0 20 19" fill="none" xmlns="http://www.w3.org/2000/svg">
<path d="M0.0521336 7.28835C0.183058 6.90362 0.542259 6.63036 0.967226 6.59398L6.73977 6.09603L9.0224 1.02047C9.1907 0.648497 9.57401 0.407715 9.9999 0.407715C10.4258 0.407715 10.8091 0.648497 10.9774 1.02134L13.26 6.09603L19.0335 6.59398C19.4577 6.63123 19.816 6.90362 19.9477 7.28835C20.0794 7.67308 19.9577 8.09506 19.6368 8.36107L15.2735 11.9964L16.5601 17.3808C16.6543 17.7767 16.4925 18.1859 16.1468 18.4233C15.9609 18.5509 15.7435 18.6158 15.5242 18.6158C15.3351 18.6158 15.1476 18.5674 14.9793 18.4717L9.9999 15.6445L5.02235 18.4717C4.65812 18.6799 4.19897 18.6609 3.85396 18.4233C3.50803 18.1852 3.34644 17.7758 3.44059 17.3808L4.72724 11.9964L0.363878 8.36179C0.0429783 8.09506 -0.0795536 7.6738 0.0521336 7.28835Z" fill="#FFC107"/>
</svg>
